<svg width="660" height="660" viewBox="0 0 660 660" fill="none" xmlns="http://www.w3.org/2000/svg">
<path d="M122.219 384.595H87.2652V399.366H122.219V384.595Z" fill="#EBEBEB"/>
<path d="M102.722 403.22H67.7688V417.991H102.722V403.22Z" fill="#EBEBEB"/>
<path d="M375.791 198.62H340.837V213.391H375.791V198.62Z" fill="#EBEBEB"/>
<path d="M356.294 217.246H321.341V232.016H356.294V217.246Z" fill="#EBEBEB"/>
<path d="M336.877 198.62H301.924V213.391H336.877V198.62Z" fill="#EBEBEB"/>
<path d="M592.231 403.22H557.278V417.991H592.231V403.22Z" fill="#EBEBEB"/>
<path d="M572.735 69.036H537.781V83.8068H572.735V69.036Z" fill="#EBEBEB"/>
<path d="M592.231 87.6613H557.278V102.432H592.231V87.6613Z" fill="#EBEBEB"/>
<path d="M102.722 69.036H67.7688V83.8068H102.722V69.036Z" fill="#EBEBEB"/>
<path d="M592.376 175.111H427.614V186.397H592.376V175.111Z" fill="#C7C7C7"/>
<path d="M568.592 134.341L567.362 134.584L575.116 173.781L576.346 173.538L568.592 134.341Z" fill="#EBEBEB"/>
<path d="M578.314 134.058L568.956 174.653L570.178 174.935L579.535 134.34L578.314 134.058Z" fill="#EBEBEB"/>
<path d="M582.79 134.831L570.591 174.608L571.79 174.976L583.989 135.198L582.79 134.831Z" fill="#EBEBEB"/>
<path d="M569.36 135.688L568.165 136.066L580.12 173.915L581.316 173.537L569.36 135.688Z" fill="#EBEBEB"/>
<path d="M575.545 135.576L574.291 135.601L575.095 175.808L576.349 175.783L575.545 135.576Z" fill="#EBEBEB"/>
<path d="M582.014 175.111H567.97L570.755 157.529H579.229L582.014 175.111Z" fill="#A6A6A6"/>
<path d="M517.638 124.357H483.292V175.111H517.638V124.357Z" fill="#DBDBDB"/>
<path d="M507.461 114.101H493.456V124.357H507.461V114.101Z" fill="#A6A6A6"/>
<path d="M512.741 137.227H488.07V160.829H512.741V137.227Z" fill="#EBEBEB"/>
<path d="M479.226 137.227H454.133V175.111H479.226V137.227Z" fill="#EBEBEB"/>
<path d="M473.669 123.235H459.664V133.492H473.669V123.235Z" fill="#A6A6A6"/>
<path d="M461.538 137.227H471.821V133.492H461.538V137.227Z" fill="#EBEBEB"/>
<path d="M560.076 117.744H530.627V175.111H560.076V117.744Z" fill="#DBDBDB"/>
<path d="M551.364 108.953H539.352V117.744H551.364V108.953Z" fill="#C7C7C7"/>
<path d="M560.076 139.616H530.627V159.852H560.076V139.616Z" fill="#C7C7C7"/>
<path d="M295.825 180.629C301.424 180.629 305.963 176.09 305.963 170.491C305.963 164.892 301.424 160.354 295.825 160.354C290.226 160.354 285.688 164.892 285.688 170.491C285.688 176.09 290.226 180.629 295.825 180.629Z" fill="#EBEBEB"/>
<path d="M296.485 0H295.165V121.268H296.485V0Z" fill="#C7C7C7"/>
<path d="M302.029 114.259H289.634V127.67H302.029V114.259Z" fill="#DBDBDB"/>
<path d="M321.196 170.491H270.468C271.498 151.193 280.698 120.331 295.825 120.331C310.952 120.331 320.179 151.193 321.196 170.491Z" fill="#DBDBDB"/>
<path d="M364.175 147.497C369.774 147.497 374.312 142.958 374.312 137.359C374.312 131.76 369.774 127.222 364.175 127.222C358.576 127.222 354.037 131.76 354.037 137.359C354.037 142.958 358.576 147.497 364.175 147.497Z" fill="#EBEBEB"/>
<path d="M364.835 0H363.515V88.1364H364.835V0Z" fill="#C7C7C7"/>
<path d="M370.366 81.1404H357.971V94.5516H370.366V81.1404Z" fill="#DBDBDB"/>
<path d="M389.532 137.359H338.804C339.834 118.074 349.034 87.1992 364.175 87.1992C379.315 87.1992 388.516 118.074 389.532 137.359Z" fill="#DBDBDB"/>
<path d="M330 604.52C413.596 604.52 481.364 597.694 481.364 589.274C481.364 580.854 413.596 574.028 330 574.028C246.404 574.028 178.636 580.854 178.636 589.274C178.636 597.694 246.404 604.52 330 604.52Z" fill="#EBEBEB"/>
<path d="M138.772 118.866H85.8132V287.734H138.772V118.866Z" fill="white"/>
<path d="M138.772 287.76L85.8 288.037H85.4964V287.76L85.1532 118.866V118.206H85.8L138.758 118.312H139.313V118.866L139.115 203.452L138.772 287.76ZM138.772 287.76L138.415 203.174L138.217 118.892L138.772 119.447L85.8 119.526L86.46 118.866L86.13 287.76L85.8132 287.456L138.772 287.76Z" fill="#DBDBDB"/>
<path d="M142.217 109.639H82.3548V118.866H142.217V109.639Z" fill="#455A64"/>
<path d="M148.183 100.426H76.4148V109.652H148.183V100.426Z" fill="#37474F"/>
<path d="M112.292 72.9564C108.814 72.9547 105.369 73.6383 102.155 74.9682C98.9411 76.2982 96.0205 78.2483 93.5603 80.7073C91.1 83.1663 89.1484 86.086 87.8169 89.2994C86.4854 92.5129 85.8 95.9572 85.8 99.4356V100.426H138.758V99.4356C138.758 92.4152 135.97 85.6821 131.008 80.7167C126.045 75.7512 119.313 72.9599 112.292 72.9564Z" fill="#455A64"/>
<path d="M82.368 296.96H142.23V287.734H82.368V296.96Z" fill="#455A64"/>
<path d="M76.4016 306.174H148.17V296.947H76.4016V306.174Z" fill="#37474F"/>
<path d="M112.292 333.643C119.315 333.643 126.05 330.853 131.016 325.888C135.982 320.922 138.772 314.187 138.772 307.164V306.24H85.8V307.217C85.814 314.233 88.6118 320.956 93.5789 325.911C98.5461 330.866 105.277 333.647 112.292 333.643Z" fill="#455A64"/>
<path d="M118.906 118.866L85.8264 132.66V118.866H118.906Z" fill="#37474F"/>
<path d="M138.772 140.527L85.8132 162.598V146.335L138.772 124.278V140.527Z" fill="#FEA000"/>
<path d="M138.772 170.465L85.8132 192.522V176.273L138.772 154.202V170.465Z" fill="#37474F"/>
<path d="M138.772 200.402L85.8132 222.46V206.21L138.772 184.14V200.402Z" fill="#FEA000"/>
<path d="M138.772 230.34L85.8132 252.397V236.135L138.772 214.078V230.34Z" fill="#37474F"/>
<path d="M138.772 260.264L85.8132 282.335V266.072L138.772 244.002V260.264Z" fill="#FEA000"/>
<path d="M138.772 273.94V287.734H105.653L138.772 273.94Z" fill="#37474F"/>
<path d="M95.5548 130.033H90.7368V276.566H95.5548V130.033Z" fill="white"/>
<path d="M475.609 348.044L475.266 349.364C475.266 349.47 475.2 349.589 475.174 349.721C474.976 350.473 474.712 351.476 474.395 352.717C474.316 353.021 474.223 353.351 474.144 353.681L473.722 355.265C473.603 355.727 473.484 356.215 473.352 356.717C472.639 359.357 471.794 362.657 470.818 366.406C470.725 366.775 470.633 367.145 470.527 367.528C467.689 378.418 463.927 393.162 459.492 409.979C459.215 411.048 458.938 412.13 458.647 413.213L457.921 416.038C457.631 417.133 457.354 418.229 457.063 419.324C456.073 423.126 455.07 427.007 454.054 430.94C453.508 433.017 452.967 435.103 452.43 437.197C448.232 453.42 443.81 470.527 439.481 487.357C438.847 489.799 438.227 492.228 437.593 494.657L433.792 509.454C431.033 520.159 428.393 530.495 425.938 540.118C424.301 546.559 422.756 552.684 421.318 558.386H328.324C338.593 520.014 355.304 464.27 368.927 419.786C381.322 379.196 391.169 348.005 391.169 348.005L475.609 348.044Z" fill="#37474F"/>
<path d="M457.763 373.072C455.664 380.503 453.592 387.935 451.427 395.353C447.141 410.032 442.82 424.705 438.464 439.375C436.458 446.186 434.438 452.989 432.406 459.782C428.472 472.982 424.512 486.182 420.526 499.382C417.789 508.543 415.043 517.704 412.289 526.865C409.138 537.363 405.979 547.866 402.811 558.373H400C401.636 553.159 403.286 547.958 404.844 542.758C409.798 526.301 414.766 509.85 419.747 493.403C423.46 481.136 427.178 468.877 430.901 456.628C431.323 455.308 431.746 453.869 432.155 452.496C436.115 439.507 440.075 426.536 444.035 413.582C446.27 406.349 448.51 399.115 450.754 391.882C452.971 384.806 455.492 377.797 457.499 370.669C458.37 367.792 458.806 369.376 457.763 373.072Z" fill="#263238"/>
<path d="M400.752 348.044C406.56 393.36 417.793 478.434 425.938 540.131C444.985 465.379 475.609 348.044 475.609 348.044H400.752Z" fill="#263238"/>
<path d="M520.463 558.36H435.032C434.676 543.074 434.227 525.861 433.792 509.427C433.277 490.485 432.775 472.56 432.406 459.769C432.326 457.129 432.26 454.687 432.194 452.509C432.023 446.675 431.904 442.688 431.864 441.263C431.864 440.893 431.864 440.695 431.864 440.695L430.399 439.811C426.888 437.699 423.707 435.917 420.895 434.425L419.971 433.95C416.434 432.102 413.53 430.742 411.431 429.805C408.91 428.696 407.471 428.195 407.471 428.195L407.194 427.403C406.428 425.146 405.715 422.809 405.055 420.446C395.815 388.449 393.862 348.044 393.862 348.044H508.926C508.926 348.044 510.88 380.384 513.256 422.334C515.764 465.854 518.76 519.697 520.463 558.36Z" fill="#37474F"/>
<path d="M508.372 558.36H506.88C505.173 524.489 503.774 490.609 502.682 456.72C501.613 425.291 500.795 393.862 499.858 362.432C499.858 361.984 500.531 362.023 500.544 362.432C502.379 418.018 504.319 473.603 506.814 529.162C507.197 536.633 507.725 546.612 508.372 558.36Z" fill="#263238"/>
<path d="M403.366 425.779C413.27 429.918 422.797 434.909 431.838 440.695C432.194 440.92 431.93 441.474 431.548 441.289C421.938 436.616 412.117 432.128 402.785 426.928C402.65 426.841 402.552 426.708 402.51 426.553C402.468 426.399 402.484 426.234 402.557 426.091C402.629 425.948 402.752 425.837 402.901 425.78C403.051 425.722 403.216 425.722 403.366 425.779Z" fill="#263238"/>
<path d="M402.811 391.499C403.458 395.049 404.316 398.547 405.082 402.059C405.808 405.359 406.336 408.659 407.207 411.998C407.922 415.158 409.525 418.048 411.827 420.327C413.147 421.529 414.559 422.585 415.932 423.693C416.684 424.287 417.49 424.855 418.255 425.462C418.163 425 418.084 424.512 417.991 424.037C417.754 422.717 417.529 421.397 417.305 420.011C416.803 417.027 416.328 414.031 415.866 411.048C414.968 405.174 414.15 399.168 412.922 393.413C412.915 393.367 412.924 393.32 412.95 393.282C412.975 393.243 413.014 393.215 413.058 393.203C413.103 393.192 413.15 393.197 413.191 393.219C413.232 393.241 413.263 393.277 413.279 393.32C414.744 399.089 416.368 404.791 417.635 410.612C418.268 413.463 420.499 427.535 420.592 428.525C420.684 429.515 420.776 430.584 420.816 431.627C420.954 432.674 420.954 433.734 420.816 434.781C420.816 435.045 420.446 434.993 420.341 434.781C419.915 433.802 419.613 432.773 419.443 431.719C419.192 430.716 418.955 429.699 418.783 428.683C418.717 428.313 418.664 427.931 418.612 427.561C417.226 426.716 415.972 425.594 414.652 424.657C413.332 423.72 411.827 422.664 410.507 421.555C408.066 419.481 406.305 416.722 405.451 413.635C404.598 410.321 404.046 406.937 403.801 403.524C403.352 399.564 403.022 395.498 402.481 391.512C402.402 391.367 402.758 391.261 402.811 391.499Z" fill="#263238"/>
<path d="M427.759 251.222C417.912 282.744 393.769 350.077 376.913 362.102C364.716 370.814 304.471 363.039 284.975 358.287C266.165 353.694 287.351 300.762 298.492 303.138C316.496 306.966 343.992 312.906 349.404 310.649C353.192 309.065 386.522 272.197 411.734 241.718C429.132 220.704 432.511 235.99 427.759 251.222Z" fill="#D3766A"/>
<path d="M374.88 280.579L410.52 319.704C410.52 319.704 424.657 284.302 431.719 257.783C438.781 231.264 434.359 214.342 414.757 234.828C395.155 255.314 374.88 280.579 374.88 280.579Z" fill="#DBDBDB"/>
<path d="M430.954 222.433L429.502 222.46L431.204 222.024L430.954 222.433Z" fill="#C7C7C7"/>
<path d="M431.64 257.783C424.604 284.302 410.52 319.704 410.52 319.704L386.892 293.766L428.908 225.72C435.943 226.09 436.484 239.712 431.64 257.783Z" fill="#C7C7C7"/>
<path d="M383.922 274.626C386.707 277.266 389.202 280.143 391.75 282.981C394.297 285.819 396.7 288.565 399.155 291.377C404.118 297.066 409.108 302.729 413.675 308.787C413.689 308.803 413.699 308.821 413.706 308.841C413.713 308.861 413.716 308.882 413.715 308.902C413.713 308.923 413.708 308.944 413.699 308.962C413.69 308.981 413.677 308.998 413.662 309.012C413.646 309.026 413.628 309.036 413.608 309.043C413.588 309.05 413.568 309.053 413.547 309.052C413.526 309.051 413.505 309.045 413.487 309.036C413.468 309.027 413.451 309.014 413.437 308.999C408.052 303.719 403.154 297.95 398.204 292.248C395.758 289.423 393.334 286.585 390.931 283.734C388.476 280.83 385.928 277.952 383.737 274.824C383.73 274.798 383.729 274.77 383.736 274.744C383.742 274.717 383.755 274.693 383.774 274.673C383.792 274.653 383.816 274.638 383.842 274.63C383.868 274.622 383.895 274.62 383.922 274.626Z" fill="#263238"/>
<path d="M267.34 353.113C277.319 358.103 301.726 360.32 307.811 358.604C313.896 356.888 319.07 315.506 314.411 310.926C309.751 306.346 274.903 292.142 263.776 294.532C252.648 296.921 257.004 347.939 267.34 353.113Z" fill="#D3766A"/>
<path d="M308.88 307.468C308.88 307.468 299.112 296.736 294.136 284.948C289.964 275.048 284.896 259.868 279.47 261.901C268.369 266.099 281.041 303.97 281.041 303.97C281.041 303.97 289.318 319.81 300.696 316.589C302.77 315.973 304.632 314.794 306.077 313.184C307.521 311.574 308.492 309.596 308.88 307.468Z" fill="#D3766A"/>
<path d="M281.675 294.36C281.992 300.274 277.134 300.221 277.134 300.221L244.49 304.273C244.49 304.273 219.107 300.775 219.239 294.017C219.49 282.361 272.342 289.463 277.094 289.318C279.642 289.172 281.53 291.72 281.675 294.36Z" fill="#D3766A"/>
<path d="M290.149 324.641C291.166 321.446 291.707 317.922 289.238 314.226C289.133 313.408 289.872 313.091 289.74 312.708C288.872 311.489 287.739 310.483 286.427 309.764C285.925 309.685 285.424 310.609 285.014 310.411C279.404 307.771 273.926 309.091 272.686 309.012C271.181 308.893 266.297 304.418 263.446 300.656C260.727 296.685 259.285 291.979 259.314 287.166C259.314 287.166 229.469 262.442 203.188 252.529L202.356 253.493L257.096 297.713C259.582 302.775 263.087 307.269 267.392 310.913C267.907 311.362 268.105 311.665 268.039 312.853C267.973 314.041 265.109 322.41 272.408 328.271C279.708 334.132 288.38 330.145 290.149 324.641ZM271.009 319.136C271.043 318.05 271.314 316.984 271.802 316.014C272.291 315.043 272.986 314.191 273.838 313.517C274.691 312.843 275.68 312.364 276.738 312.112C277.795 311.861 278.894 311.843 279.959 312.061C284.816 312.774 287.879 316.021 287.773 320.258C287.575 325.974 282.599 327.954 279.14 327.69C275.352 327.36 270.732 323.836 271.009 319.136Z" fill="#37474F"/>
<path d="M260.225 293.898L250.602 292.499L231.383 276.962L248.846 279.101C255.262 283.826 259.288 287.166 259.288 287.166C259.203 289.448 259.52 291.726 260.225 293.898Z" fill="#263238"/>
<path d="M204.23 253.585C206.672 254.588 209.048 255.71 211.424 256.846C213.8 257.981 216.124 259.208 218.434 260.462C223.054 262.97 227.586 265.637 232.03 268.462C236.452 271.326 240.821 274.27 245.018 277.438C246.061 278.23 247.13 278.995 248.16 279.827L251.249 282.269C252.278 283.087 253.282 283.945 254.285 284.803L257.281 287.364C253.163 284.09 249.044 280.764 244.768 277.768C240.491 274.771 236.174 271.735 231.739 268.924C227.304 266.112 222.803 263.406 218.236 260.832C213.668 258.258 208.996 255.816 204.23 253.585Z" fill="#455A64"/>
<path d="M270.428 286.744C275.154 286.48 281.728 287.258 282.797 288.327C283.866 289.397 287.575 297.039 294.914 297.567C297.265 297.764 299.624 297.298 301.724 296.222C303.823 295.147 305.58 293.505 306.794 291.482C308.92 288.103 310.517 289.067 312.985 288.922C316.293 288.562 319.38 287.086 321.737 284.737C324.047 282.269 322.04 279.457 319.176 282.322C318.108 283.517 316.739 284.406 315.212 284.896C313.685 285.385 312.055 285.458 310.49 285.107C307.111 284.605 306.28 276.896 297.158 275.563C288.037 274.23 283.47 281.477 282.638 282.308C281.807 283.14 281.424 283.18 280.764 283.074C275.186 282.157 269.478 282.404 264 283.8L194.779 271.141L194.594 272.461C219.252 285.925 257.453 292.406 257.453 292.406C261.102 289.244 265.628 287.269 270.428 286.744ZM287.338 285.727C287.373 284.64 287.646 283.574 288.136 282.604C288.626 281.633 289.322 280.781 290.176 280.108C291.029 279.434 292.019 278.955 293.077 278.703C294.135 278.452 295.235 278.434 296.3 278.652C301.158 279.365 304.22 282.612 304.115 286.849C303.917 292.565 298.94 294.545 295.482 294.267C291.72 293.977 287.074 290.4 287.338 285.727Z" fill="#455A64"/>
<path d="M251.42 285.661C251.306 285.283 251.082 284.948 250.777 284.698C250.472 284.447 250.1 284.293 249.707 284.254C249.314 284.216 248.919 284.295 248.571 284.482C248.223 284.668 247.938 284.954 247.753 285.302C247.567 285.651 247.49 286.046 247.53 286.439C247.569 286.832 247.725 287.204 247.976 287.508C248.228 287.812 248.564 288.035 248.942 288.148C249.32 288.261 249.723 288.259 250.1 288.143C250.604 287.987 251.025 287.639 251.272 287.174C251.52 286.709 251.573 286.165 251.42 285.661Z" fill="#C7C7C7"/>
<path d="M250.866 285.82C250.756 285.463 250.511 285.163 250.182 284.986C249.854 284.808 249.469 284.766 249.11 284.869C248.843 284.949 248.604 285.106 248.426 285.321C248.247 285.536 248.137 285.799 248.108 286.077C248.079 286.355 248.133 286.635 248.263 286.882C248.394 287.129 248.594 287.332 248.84 287.465C249.086 287.598 249.365 287.655 249.644 287.629C249.922 287.603 250.186 287.496 250.403 287.319C250.62 287.143 250.78 286.907 250.862 286.64C250.944 286.373 250.946 286.087 250.866 285.82Z" fill="#EBEBEB"/>
<path d="M195.545 272.039C198 273.121 200.473 274.155 202.963 275.141C205.454 276.126 207.948 277.09 210.448 278.032C215.464 279.906 220.519 281.675 225.628 283.312C228.162 284.156 230.736 284.895 233.297 285.687C235.858 286.479 238.445 287.166 241.032 287.826L244.992 288.842L248.952 289.766L250.906 290.228L252.872 290.651L256.832 291.496C251.552 290.585 246.272 289.555 241.098 288.222L239.144 287.747L237.191 287.219L233.323 286.163C230.749 285.384 228.175 284.658 225.614 283.826C220.519 282.163 215.45 280.408 210.461 278.441C205.471 276.474 200.363 274.388 195.545 272.039Z" fill="#263238"/>
<path d="M306.61 290.4C305.595 292.455 304.045 294.197 302.122 295.442C300.168 296.692 297.874 297.305 295.557 297.196C293.24 297.088 291.014 296.263 289.186 294.835C287.374 293.417 285.82 291.698 284.592 289.753C284.275 289.304 283.972 288.776 283.655 288.433C283.281 288.06 282.831 287.772 282.335 287.588C281.297 287.188 280.216 286.909 279.114 286.757C276.888 286.442 274.643 286.292 272.395 286.308C270.159 286.297 267.935 286.622 265.795 287.272C263.606 287.827 261.533 288.766 259.67 290.044C260.556 289.334 261.521 288.731 262.548 288.248C263.577 287.769 264.635 287.355 265.716 287.008C267.887 286.3 270.152 285.921 272.435 285.886C274.712 285.822 276.99 285.95 279.246 286.268C280.388 286.414 281.509 286.693 282.586 287.1C283.157 287.31 283.675 287.644 284.104 288.077C284.513 288.565 284.764 289.027 285.094 289.502C286.275 291.403 287.776 293.087 289.529 294.479C291.282 295.861 293.413 296.681 295.64 296.828C297.882 296.962 300.112 296.419 302.042 295.271C303.963 294.073 305.538 292.394 306.61 290.4Z" fill="#263238"/>
<path d="M277.2 300.155C277.2 300.155 288.578 301.593 289.832 308.075C291.034 314.252 281.701 314.965 281.028 315.018C281.635 315.097 292.05 316.694 292.657 323.268C293.278 330.105 283.787 329.208 283.18 329.142C283.721 329.393 290.849 332.891 290.176 337.986C289.001 346.751 270.521 338.329 263.934 341.114C263.934 341.114 267.379 352.823 267.406 353.179C267.406 353.179 249.652 345.523 246.391 336.428C245.896 335.111 245.866 333.664 246.305 332.327C246.744 330.99 247.627 329.843 248.807 329.076C248.807 329.076 242.814 327.241 242.207 322.08C241.877 319.44 245.837 316.562 245.837 316.562C245.837 316.562 241.098 314.886 240.821 310.266C240.727 308.976 241.031 307.688 241.692 306.577C242.353 305.465 243.339 304.583 244.517 304.049C253.783 298.676 277.2 300.155 277.2 300.155Z" fill="#D3766A"/>
<path d="M245.071 303.745C244.966 303.745 244.913 303.626 245.071 303.587C254.932 299.336 267.076 297.7 277.609 300.062C277.952 300.142 279.088 301.382 278.705 301.277C268.818 299.706 256.08 300.96 245.071 303.745Z" fill="#263238"/>
<path d="M245.52 316.457C245.401 316.457 245.348 316.285 245.52 316.246C255.697 311.929 269.425 310.451 281.239 314.609C281.648 314.754 281.873 315.282 281.398 315.15C273.332 312.985 255.499 313.896 245.52 316.457Z" fill="#263238"/>
<path d="M283.8 329.657C272.303 326.106 260.832 326.608 249.11 328.812C248.965 328.812 248.939 328.614 249.11 328.561C254.549 325.921 262.165 325.288 268.118 325.301C273.654 325.214 279.115 326.579 283.958 329.261C284.156 329.353 284.077 329.723 283.8 329.657Z" fill="#263238"/>
<path d="M277.279 300.023C277.702 300.115 276.672 300.947 277.094 301.052C281.556 302.24 289.436 304.762 289.291 308.616C289.172 311.705 284.935 313.685 283.008 313.804L278.177 314.107L282.823 315.506C284.893 316.103 286.85 317.035 288.618 318.265C289.47 318.79 290.201 319.49 290.763 320.318C291.325 321.146 291.705 322.084 291.878 323.07C292.033 323.985 291.869 324.925 291.412 325.733C290.955 326.541 290.234 327.166 289.37 327.505C287.42 328.232 285.316 328.445 283.259 328.126L277.556 327.452L282.704 329.947C284.134 330.651 285.465 331.539 286.664 332.587C287.847 333.52 288.732 334.776 289.212 336.204C289.394 336.861 289.391 337.555 289.202 338.21C289.014 338.865 288.647 339.454 288.143 339.913C286.863 340.754 285.37 341.212 283.84 341.233C280.516 341.358 277.189 341.221 273.887 340.824C272.224 340.679 270.534 340.534 268.844 340.468C267.154 340.312 265.449 340.514 263.842 341.062C265.476 340.694 267.166 340.649 268.818 340.93C270.468 341.128 272.131 341.392 273.781 341.669C277.127 342.306 280.526 342.624 283.932 342.619C285.776 342.654 287.59 342.144 289.146 341.154C289.938 340.527 290.528 339.681 290.843 338.721C291.157 337.761 291.182 336.729 290.915 335.755C290.385 333.959 289.327 332.363 287.879 331.175C286.549 330.002 285.071 329.008 283.483 328.218L282.929 330.04C285.357 330.454 287.852 330.222 290.162 329.366C291.428 328.856 292.477 327.923 293.132 326.726C293.736 325.528 293.966 324.176 293.792 322.846C293.572 321.599 293.089 320.413 292.377 319.367C291.665 318.32 290.739 317.436 289.661 316.774C287.698 315.439 285.525 314.444 283.232 313.83L283.048 315.533C285.49 315.295 290.466 313.606 291.258 308.84C291.39 302.478 279.484 300.274 277.279 300.023Z" fill="#263238"/>
<path d="M519.354 408.065C518.998 408.421 373.019 398.429 371.791 396.845C370.088 394.601 416.288 246.259 427.865 224.466C432.802 215.226 456.403 213.84 465.736 222.618C489.1 244.596 505.336 315.625 508.768 336.93C514.444 372.029 520.661 406.784 519.354 408.065Z" fill="#DBDBDB"/>
<path d="M479.49 344.414C480.731 349.272 512.992 358.657 513.718 359.04C514.444 359.423 515.434 365.204 515.434 365.204C515.434 365.204 483.833 366.208 482.17 366.34C480.506 366.472 495.106 555.1 494.3 557.04C493.495 558.98 421.991 555.72 399.604 552.42C377.216 549.12 330.462 542.045 330.132 540.131C329.802 538.217 374.563 377.942 382.259 350.315C389.954 322.687 407.88 275.22 408.791 275.405C409.939 275.629 447.691 276.316 451.691 277.253C453.209 277.609 478.249 339.557 479.49 344.414Z" fill="#263238"/>
<path d="M407.299 281.596C407.299 281.596 422.189 232.373 423.944 228.796C425.45 226.179 427.402 223.847 429.713 221.905L412.553 281.78L407.299 281.596Z" fill="#FEA000"/>
<path d="M412.17 279.18C412.077 279.438 411.913 279.665 411.696 279.833C411.478 280.001 411.217 280.103 410.944 280.127C410.671 280.152 410.396 280.098 410.152 279.971C409.909 279.844 409.706 279.651 409.569 279.413C409.432 279.175 409.366 278.903 409.378 278.629C409.391 278.354 409.482 278.089 409.64 277.865C409.798 277.641 410.017 277.466 410.272 277.362C410.526 277.259 410.804 277.23 411.074 277.279C411.471 277.387 411.808 277.648 412.014 278.004C412.219 278.36 412.275 278.783 412.17 279.18Z" fill="#263238"/>
<path d="M441.936 283.153L449.856 283.787C449.856 283.787 457.948 244.847 459.505 237.178C460.704 231.841 462.383 226.623 464.521 221.588C463.117 219.945 461.139 218.897 458.99 218.658C458.99 218.658 452.707 235.541 450.582 245.058C448.694 253.308 441.936 283.153 441.936 283.153Z" fill="#FEA000"/>
<path d="M448.602 279.906C448.599 280.281 448.486 280.647 448.275 280.958C448.065 281.269 447.767 281.511 447.419 281.653C447.072 281.794 446.69 281.83 446.322 281.755C445.954 281.681 445.617 281.498 445.352 281.232C445.088 280.966 444.908 280.627 444.836 280.259C444.764 279.89 444.802 279.509 444.946 279.162C445.091 278.816 445.334 278.52 445.647 278.311C445.959 278.103 446.326 277.992 446.701 277.992C446.952 277.992 447.2 278.042 447.432 278.138C447.663 278.234 447.873 278.375 448.05 278.553C448.227 278.731 448.366 278.942 448.461 279.174C448.556 279.407 448.604 279.655 448.602 279.906Z" fill="#263238"/>
<path d="M426.108 389.315L449.939 388.704L449.614 376.023L425.783 376.634L426.108 389.315Z" fill="#455A64"/>
<path d="M425.462 389.294L425.621 395.366L434.821 404.276L442.068 404.092L450.793 394.72L450.635 388.648L425.462 389.294Z" fill="#DBDBDB"/>
<path d="M438.346 463.65L441.58 463.571L442.068 404.092L434.821 404.276L438.346 463.65Z" fill="#DBDBDB"/>
<path d="M401.768 374.695L420.13 372.372L419.707 369.904L401.65 373.996L401.768 374.695Z" fill="#FEA000"/>
<path d="M402.191 377.164L420.552 374.827L420.13 372.372L402.072 376.464L402.191 377.164Z" fill="#FEA000"/>
<path d="M402.613 379.619L420.974 377.296L420.552 374.827L402.494 378.919L402.613 379.619Z" fill="#FEA000"/>
<path d="M403.036 382.087L421.397 379.751L420.974 377.296L402.917 381.388L403.036 382.087Z" fill="#FEA000"/>
<path d="M403.458 384.542L421.806 382.219L421.397 379.751L403.339 383.856L403.458 384.542Z" fill="#FEA000"/>
<path d="M403.88 387.011L422.228 384.688L421.806 382.219L403.762 386.311L403.88 387.011Z" fill="#FEA000"/>
<path d="M404.303 389.466L422.651 387.143L422.228 384.688L404.184 388.78L404.303 389.466Z" fill="#FEA000"/>
<path d="M404.725 391.934L423.073 389.611L422.651 387.143L404.606 391.235L404.725 391.934Z" fill="#FEA000"/>
<path d="M405.148 394.403L423.496 392.066L423.073 389.611L405.029 393.703L405.148 394.403Z" fill="#FEA000"/>
<path d="M405.57 396.858L423.918 394.535L423.496 392.066L405.451 396.158L405.57 396.858Z" fill="#FEA000"/>
<path d="M405.992 399.326L424.34 396.99L423.918 394.535L405.874 398.627L405.992 399.326Z" fill="#FEA000"/>
<path d="M406.402 401.782L424.763 399.458L424.34 396.99L406.296 401.095L406.402 401.782Z" fill="#FEA000"/>
<path d="M406.824 404.25L425.185 401.927L424.763 399.458L406.718 403.55L406.824 404.25Z" fill="#FEA000"/>
<path d="M407.246 406.705L425.608 404.382L425.185 401.927L407.128 406.019L407.246 406.705Z" fill="#FEA000"/>
<path d="M407.669 409.174L426.03 406.85L425.608 404.382L407.55 408.474L407.669 409.174Z" fill="#FEA000"/>
<path d="M408.091 411.642L426.452 409.306L426.03 406.85L407.972 410.942L408.091 411.642Z" fill="#FEA000"/>
<path d="M408.514 414.097L426.875 411.774L426.452 409.306L408.395 413.398L408.514 414.097Z" fill="#FEA000"/>
<path d="M408.936 416.565L427.297 414.229L426.875 411.774L408.817 415.866L408.936 416.565Z" fill="#FEA000"/>
<path d="M432.353 456.984L435.468 456.456L422.888 369.362L417.503 370.286L432.353 456.984Z" fill="#FEA000"/>
<path d="M449.284 384.976L472.874 388.417L474.705 375.865L451.115 372.424L449.284 384.976Z" fill="#455A64"/>
<path d="M448.642 384.846L447.757 390.852L455.308 401.201L462.488 402.244L472.679 394.495L473.55 388.489L448.642 384.846Z" fill="#FEA000"/>
<path d="M448.721 460.31L451.915 460.772L462.488 402.243L455.308 401.201L448.721 460.31Z" fill="#FEA000"/>
<path d="M466.25 417.331C466.25 417.331 445.606 422.611 416.948 417.41C416.948 417.41 414.81 460.403 416.024 462.832C417.239 465.26 433.897 472.072 439.969 472.705C446.041 473.339 465.524 467.702 468.336 464.033C471.148 460.363 466.25 417.331 466.25 417.331Z" fill="#37474F"/>
<path d="M479.45 265.227C479.45 292.446 466.818 364.848 445.883 374.695C427.324 383.42 381.48 346.672 366.683 337.735C359.344 333.326 385.757 275.88 392.898 281.635C402.481 289.344 427.324 311.824 429.752 310.24C432.392 308.497 439.718 291.047 458.278 252.661C475.754 216.48 479.45 248.16 479.45 265.227Z" fill="#D3766A"/>
<path d="M273.24 256.647C272.652 255.567 271.854 254.614 270.893 253.845C269.932 253.077 268.827 252.508 267.643 252.173C266.244 251.795 264.802 251.596 263.353 251.579C267.485 250.826 270.125 247.341 271.828 244.503C273.53 241.665 271.405 235.805 271.405 235.805C271.405 235.805 276.685 241.349 275.774 245.243C274.864 249.137 270.494 252.054 270.494 252.054C272.475 252.262 274.472 251.852 276.21 250.879C278.494 249.308 278.309 243.949 278.309 243.949C278.309 243.949 281.081 254.667 273.24 256.647Z" fill="#263238"/>
<path d="M329.406 265.32L329.208 265.676L321.288 279.021L321.037 278.876L328.271 265.188L327.703 264.871L319.849 278.216L319.598 278.071L326.832 264.396L326.264 264.079L318.424 277.411L318.173 277.279L325.393 263.591L324.839 263.274L316.985 276.606L316.734 276.474L323.954 262.785L323.387 262.469L315.612 275.88L315.348 275.748L322.595 262.073L322.014 261.743L314.16 275.035L313.909 274.89L321.143 261.215L320.562 260.885L312.721 274.23L312.47 274.085L319.704 260.409L319.136 260.093L311.282 273.425L311.032 273.279L318.265 259.604L317.698 259.287L309.844 272.619L309.593 272.487L316.8 258.799L316.232 258.482L308.392 271.827L308.128 271.682L315.361 258.007L314.794 257.69L306.953 271.022L306.689 270.877L313.922 257.202L313.355 256.885L305.501 270.217L305.25 270.072L312.497 256.397L311.916 256.08L304.075 269.425L303.824 269.28L311.045 255.591L310.49 255.275L302.676 268.62L302.425 268.475L309.646 254.76L309.078 254.456L301.237 267.788L300.986 267.643L308.22 253.968L307.639 253.651L299.812 266.983L299.548 266.851L306.781 253.163L306.2 252.846L298.32 266.204L298.069 266.072L305.303 252.384L304.735 252.067L296.881 265.412L296.63 265.267L303.864 251.592L303.296 251.262L295.376 264.607L295.126 264.462L302.465 250.8L301.897 250.47L294.056 263.815L293.806 263.67L301.026 249.995L300.458 249.678L292.618 263.01L292.354 262.878L299.64 249.176L299.072 248.859L291.218 262.191L290.968 262.059L298.214 248.384L297.634 248.054L289.74 261.36L289.489 261.215L296.71 247.539L296.142 247.209L288.301 260.555L288.05 260.409L295.271 246.84L294.716 246.523L286.796 259.855L286.546 259.71L293.779 246.035L293.198 245.718L285.358 259.05L285.094 258.918L292.34 245.229L291.76 244.913L283.919 258.258L283.668 258.113L290.902 244.424L290.334 244.121L282.546 257.4L282.295 257.255L289.529 243.579L288.961 243.263L281.16 256.581L280.909 256.436L288.143 242.761L287.575 242.444L279.734 255.789L279.484 255.644L286.704 241.956L286.136 241.639L278.296 254.984L278.032 254.839L285.265 241.151L284.698 240.834L276.857 254.179L276.593 254.034L283.8 240.359L283.219 240.042L275.365 253.44L275.114 253.308L282.348 239.619L281.767 239.303L273.926 252.635L273.676 252.503L280.896 238.814L280.342 238.497L272.488 251.829L272.237 251.697L279.47 238.022L278.89 237.692L271.049 251.037L270.798 250.892L278.032 237.217L277.451 236.887L269.623 250.232L269.359 250.087L276.593 236.412L276.025 236.095L268.105 249.427L267.854 249.295L275.088 235.607L274.52 235.29L266.6 248.622L266.35 248.49L273.583 234.815L273.016 234.485L265.32 247.764L265.069 247.619L272.29 233.943L271.722 233.627L263.881 246.959L263.63 246.813L270.851 233.138L270.283 232.821L262.442 246.153L262.178 246.008L269.412 232.32L268.831 232.003L260.99 245.348L260.74 245.203L267.96 231.528L267.379 231.211L259.538 244.556L259.288 244.411L266.508 230.723L265.954 230.419L258.034 243.751L257.783 243.606L265.016 229.931L264.449 229.614L256.529 242.946L256.278 242.801L263.512 229.125L262.931 228.809L255.103 242.141L254.839 242.009L262.218 228.36L261.65 228.043L253.796 241.388L253.546 241.243L260.779 227.555L260.212 227.238L252.358 240.583L252.107 240.438L259.34 226.763L258.773 226.433L250.932 239.778L250.681 239.646L257.902 225.957L257.347 225.641L249.48 238.92L249.229 238.788L256.45 225.099L255.882 224.783L248.041 238.115L247.777 237.983L255.024 224.307L254.443 223.977L246.602 237.323L246.352 237.177L253.585 223.502L253.004 223.172L245.164 236.517L244.913 236.372L252.12 222.71L252.318 222.354C252.881 221.341 253.638 220.449 254.546 219.729C255.454 219.01 256.496 218.476 257.61 218.16C258.725 217.844 259.891 217.75 261.042 217.886C262.193 218.021 263.306 218.382 264.317 218.948L326.04 253.347C328.072 254.491 329.567 256.393 330.198 258.638C330.829 260.882 330.544 263.285 329.406 265.32Z" fill="#FEA000"/>
<path d="M396.95 285.226C396.95 285.226 379.223 269.636 367.158 260.04C360.426 254.654 348.058 246.444 341.299 244.754C331.188 242.22 287.311 238.154 286.084 248.714C284.962 258.337 323.11 257.096 323.11 257.096C323.11 257.096 284.513 254.945 285.292 266.759C286.07 278.573 328.997 271.458 328.997 271.458C328.997 271.458 289.278 270.138 292.037 282.19C294.096 291.298 333.34 287.034 333.34 287.034C333.34 287.034 299.191 286.136 300.92 295.601C302.821 306.055 339.28 304.392 339.28 304.392C347.714 327.716 360.479 336.257 371.554 339.662C374.128 340.402 396.95 285.226 396.95 285.226Z" fill="#D3766A"/>
<path d="M334.686 256.872C306.372 253.123 291.337 259.948 291.773 259.842C302.069 257.479 318.358 257.268 322.898 257.281C327.439 257.294 330.145 257.044 334.686 257.057C334.805 257.057 334.792 256.898 334.686 256.872Z" fill="#263238"/>
<path d="M336.758 273.345C323.479 270.705 307.718 272.025 302.333 273.345C301.91 273.451 302.056 273.596 302.504 273.583C308.286 273.451 331.003 273.319 336.824 273.451C336.851 273.491 336.851 273.359 336.758 273.345Z" fill="#263238"/>
<path d="M339.504 287.404C327.452 285.925 321.895 286.48 312.853 288.196C312.431 288.288 312.655 288.526 313.117 288.499C321.961 288.064 328.957 287.668 339.517 287.707C339.649 287.76 339.689 287.417 339.504 287.404Z" fill="#263238"/>
<path d="M341.986 311.018C343.019 313.134 344.174 315.187 345.444 317.17C346.681 319.158 348.03 321.075 349.483 322.912C352.332 326.607 355.661 329.906 359.383 332.719C360.3 333.429 361.256 334.085 362.248 334.686L363.726 335.597C364.241 335.887 364.769 336.125 365.284 336.389L366.828 337.181C367.369 337.487 367.894 337.821 368.399 338.184C369.389 338.844 370.352 339.504 371.316 340.204C375.17 342.923 378.998 345.682 382.747 348.572C380.714 347.358 378.787 346.091 376.715 344.85L370.748 341.048L367.765 339.148C367.303 338.857 366.722 338.474 366.34 338.29L364.716 337.511C364.188 337.247 363.634 336.996 363.106 336.719L361.574 335.782C360.539 335.176 359.543 334.506 358.591 333.775C354.776 330.89 351.432 327.43 348.678 323.519C345.881 319.681 343.629 315.474 341.986 311.018Z" fill="#263238"/>
<path d="M432.736 302.016L477.404 330.304C477.404 330.304 481.642 292.406 481.364 264.977C481.087 237.547 472.336 222.394 458.924 247.342C445.513 272.29 432.736 302.016 432.736 302.016Z" fill="#DBDBDB"/>
<path d="M438.755 294.36C442.187 296.023 445.434 298.082 448.694 300.049C451.955 302.016 455.083 303.917 458.251 305.87C464.68 309.83 471.121 313.79 477.22 318.239C477.25 318.263 477.27 318.298 477.276 318.337C477.282 318.375 477.273 318.415 477.252 318.448C477.231 318.48 477.198 318.504 477.161 318.514C477.123 318.524 477.083 318.52 477.048 318.503C470.342 315.018 463.967 310.992 457.552 306.992C454.384 305.021 451.233 303.032 448.1 301.026C444.893 298.967 441.606 296.96 438.596 294.637C438.56 294.616 438.533 294.581 438.522 294.541C438.51 294.5 438.516 294.456 438.537 294.419C438.558 294.383 438.593 294.356 438.634 294.344C438.674 294.333 438.718 294.339 438.755 294.36Z" fill="#263238"/>
<path d="M478.183 318.041C478.46 314.081 478.804 310.213 479.173 306.319C479.926 298.399 480.374 290.479 481.246 282.559C481.246 282.454 481.417 282.454 481.417 282.559C481.417 287.298 481.153 292.024 480.85 296.762C481.351 294.598 481.853 292.433 482.42 290.294C482.42 290.162 482.671 290.189 482.645 290.294C482.407 291.878 482.117 293.449 481.734 295.007C481.417 296.261 481.074 297.515 480.731 298.769C480.564 301.277 480.396 303.776 480.229 306.266C479.978 310.226 479.569 314.081 479.252 317.988C479.081 320.113 477.932 328.482 477.734 329.868C477.734 330.066 477.404 330.053 477.418 329.868C477.576 327.782 478.038 320.034 478.183 318.041Z" fill="#263238"/>
<path d="M437.474 245.718C444.985 245.256 455.057 229.535 457.182 219.424C457.327 218.724 454.542 212.718 451.44 205.273C449.605 200.746 447.652 195.65 446.16 190.885C445.87 189.908 443.071 192.707 443.071 192.707L437.356 196.073L418.44 207.24C418.44 207.24 424.393 216.348 426.862 224.677C427.055 225.336 427.183 226.013 427.244 226.697C427.244 226.789 427.244 226.908 427.244 227.04C427.878 230.908 430.201 246.154 437.474 245.718Z" fill="#D3766A"/>
<path d="M427.297 226.657C427.297 226.75 427.297 226.868 427.297 227C428.359 226.832 429.406 226.576 430.426 226.235C450.437 219.635 445.21 193.314 445.21 193.314L437.356 196.073L418.44 207.24C418.44 207.24 424.393 216.348 426.862 224.677C427.07 225.322 427.216 225.985 427.297 226.657Z" fill="#263238"/>
<path d="M437.58 152.882C441.025 155.206 450.952 153.239 454.384 147.734C459.096 140.171 449.104 128.66 440.312 133.531C431.521 138.402 434.927 151.1 437.58 152.882Z" fill="#263238"/>
<path d="M451.506 135.102C453.617 137.129 455.195 139.645 456.1 142.428C456.518 143.735 456.524 145.138 456.118 146.448C455.712 147.759 454.913 148.913 453.829 149.754C452.726 150.655 451.51 151.409 450.212 151.998C448.926 152.629 447.571 153.107 446.173 153.424C443.319 154.109 440.325 153.92 437.58 152.882C440.215 154.477 443.336 155.068 446.371 154.546C447.898 154.307 449.385 153.863 450.793 153.226C452.22 152.616 453.553 151.807 454.753 150.823C456.004 149.792 456.922 148.414 457.393 146.863C457.799 145.291 457.711 143.632 457.142 142.111C456.027 139.252 454.059 136.805 451.506 135.102Z" fill="#263238"/>
<path d="M441.619 157.595C447.546 167.547 449.539 200.033 443.573 208.85C434.94 221.628 417.014 227.04 405.24 215.82C393.782 204.93 392.04 162.545 398.97 154.136C409.2 141.768 432.854 142.89 441.619 157.595Z" fill="#D3766A"/>
<path d="M415.972 185.302C415.972 185.222 416.156 185.394 416.156 185.486C416.222 187.678 416.684 190.186 418.704 190.766C418.77 190.766 418.77 190.898 418.704 190.885C416.262 190.714 415.694 187.44 415.972 185.302Z" fill="#263238"/>
<path d="M417.78 182.899C421.278 182.398 422.017 189.433 418.77 189.895C415.523 190.357 414.836 183.308 417.78 182.899Z" fill="#263238"/>
<path d="M403.564 186.199C403.564 186.12 403.405 186.318 403.405 186.41C403.709 188.575 403.682 191.123 401.782 192.047C401.782 192.047 401.782 192.192 401.782 192.166C404.184 191.572 404.184 188.206 403.564 186.199Z" fill="#263238"/>
<path d="M401.372 184.127C397.835 184.219 398.297 191.281 401.57 191.189C404.844 191.096 404.342 184.034 401.372 184.127Z" fill="#263238"/>
<path d="M420.222 179.388C419.232 179.243 418.348 178.952 417.384 178.715C416.359 178.607 415.396 178.172 414.638 177.474C414.437 177.213 414.328 176.893 414.328 176.563C414.328 176.234 414.437 175.913 414.638 175.652C415.127 175.206 415.726 174.898 416.374 174.761C417.021 174.624 417.694 174.663 418.321 174.874C419.67 175.097 420.887 175.812 421.74 176.88C421.921 177.134 422.023 177.435 422.034 177.747C422.046 178.058 421.966 178.366 421.805 178.632C421.643 178.899 421.408 179.113 421.126 179.247C420.845 179.381 420.531 179.43 420.222 179.388Z" fill="#263238"/>
<path d="M398.284 180.84C399.234 180.576 400.079 180.18 401.003 179.824C402.01 179.596 402.914 179.044 403.577 178.253C403.736 177.963 403.795 177.628 403.745 177.302C403.694 176.975 403.538 176.673 403.3 176.444C402.759 176.063 402.127 175.833 401.468 175.778C400.809 175.722 400.148 175.843 399.551 176.128C398.255 176.525 397.154 177.391 396.462 178.556C396.319 178.831 396.259 179.141 396.288 179.449C396.318 179.757 396.437 180.049 396.629 180.291C396.822 180.533 397.081 180.714 397.375 180.811C397.669 180.908 397.984 180.919 398.284 180.84Z" fill="#263238"/>
<path d="M420.856 204.415C420.394 204.983 419.945 205.735 419.153 205.894C418.344 205.965 417.529 205.861 416.764 205.59C416.748 205.584 416.731 205.584 416.715 205.588C416.699 205.593 416.685 205.603 416.674 205.616C416.664 205.629 416.658 205.645 416.658 205.662C416.657 205.678 416.662 205.695 416.671 205.709C417.028 206.104 417.485 206.396 417.994 206.553C418.502 206.711 419.044 206.73 419.562 206.606C419.996 206.444 420.372 206.157 420.642 205.781C420.912 205.405 421.065 204.957 421.08 204.494C421.08 204.362 420.922 204.336 420.856 204.415Z" fill="#263238"/>
<path d="M417.886 198.132C417.422 199.051 416.773 199.864 415.981 200.52C415.188 201.177 414.268 201.662 413.279 201.947C412.422 202.206 411.534 202.344 410.639 202.356C410.468 202.376 410.295 202.376 410.124 202.356H409.636C409.517 202.342 409.407 202.291 409.319 202.21C409.231 202.13 409.171 202.024 409.147 201.907C409.141 201.832 409.141 201.757 409.147 201.683V201.485C408.923 199.808 408.817 197.247 408.817 197.247C408.236 197.617 405.253 199.346 405.214 198.462C404.884 191.162 404.527 183.031 405.742 175.692C405.753 175.646 405.78 175.606 405.817 175.577C405.854 175.549 405.899 175.533 405.946 175.533C405.993 175.533 406.039 175.549 406.076 175.577C406.113 175.606 406.139 175.646 406.151 175.692C406.745 182.701 406.151 189.776 406.573 196.812C407.632 196.177 408.774 195.693 409.966 195.373C410.216 195.373 410.084 200.349 410.243 201.089C410.236 201.115 410.236 201.142 410.243 201.168C413.094 201.234 415.127 200.165 417.674 197.987C417.806 197.815 417.991 198 417.886 198.132Z" fill="#263238"/>
<path d="M411.523 201.392C412.564 202.499 413.874 203.318 415.325 203.768C416.126 203.983 416.974 203.946 417.754 203.663C419.443 203.016 419.324 201.419 418.862 200.086C418.607 199.38 418.27 198.707 417.859 198.079C416.154 199.83 413.934 200.991 411.523 201.392Z" fill="#263238"/>
<path d="M415.325 203.768C416.126 203.983 416.974 203.947 417.754 203.663C419.443 203.016 419.324 201.419 418.862 200.086C417.945 200.214 417.098 200.647 416.457 201.315C415.815 201.983 415.416 202.847 415.325 203.768Z" fill="#FF98B9"/>
<path opacity="0.3" d="M447.124 191.136C446.398 190.357 436.141 179.177 432.181 173.171C430.003 169.871 429.99 156.011 429.99 155.628C430.289 153.232 431.464 151.031 433.29 149.45C436.714 151.413 439.58 154.216 441.619 157.595C445.302 163.772 447.48 178.649 447.124 191.136Z" fill="#263238"/>
<path d="M441.21 184.562C441.21 184.562 446.002 172.88 451.15 174.372C456.298 175.864 454.278 191.69 449.354 194.911C448.748 195.364 448.056 195.69 447.321 195.869C446.585 196.049 445.821 196.077 445.074 195.954C444.327 195.831 443.612 195.558 442.973 195.152C442.334 194.746 441.784 194.215 441.355 193.591L441.21 184.562Z" fill="#D3766A"/>
<path d="M450.463 178.886C450.542 178.886 450.582 178.979 450.463 179.032C447.031 181.408 445.843 185.354 445.262 189.288C446.068 187.638 447.427 186.529 449.592 187.453C449.711 187.453 449.592 187.678 449.592 187.678C448.883 187.616 448.172 187.777 447.557 188.136C446.943 188.495 446.455 189.036 446.16 189.684C445.675 190.772 445.308 191.91 445.064 193.076C444.959 193.459 444.312 193.406 444.352 192.997C444.352 192.997 444.352 192.931 444.352 192.905C443.177 188.113 445.408 180.536 450.463 178.886Z" fill="#263238"/>
<path d="M437.184 149.807C441.382 152.698 429.964 159.628 428.076 160.235C426.188 160.842 428.234 156.394 428.234 156.394C428.234 156.394 422.704 164.551 418.48 166.571C415.491 167.866 412.321 168.694 409.081 169.026L414.361 162.202C414.361 162.202 403.801 172.392 397.016 174.24C392.946 175.337 389.316 177.671 386.628 180.919C386.628 180.919 383.75 165.251 387.262 159.958C389.585 156.529 392.35 153.422 395.485 150.718L386.852 153.212C386.852 153.212 393.254 147.523 398.138 145.807C403.022 144.091 413.701 143.722 413.701 143.722L406.573 141.082C406.573 141.082 412.777 138.679 417.767 139.498C422.229 140.496 426.597 141.879 430.822 143.629L425.542 140.118C425.542 140.118 430.096 139.616 432.511 141.702C434.927 143.788 437.184 149.807 437.184 149.807Z" fill="#263238"/>
<path d="M426.914 199.32C425.96 198.164 424.779 197.216 423.444 196.535C422.109 195.854 420.649 195.454 419.153 195.36C415.807 194.9 412.4 195.437 409.358 196.904C405.398 198.911 404.686 201.815 405.121 206.778C405.557 211.741 407.629 219.186 409.53 220.73C411.431 222.275 418.77 224.69 423.733 223.634C427.694 222.732 431.31 220.706 434.148 217.8C436.075 215.464 428.894 201.775 426.914 199.32ZM424.644 208.256C422.981 209.627 420.987 210.537 418.862 210.896C416.077 211.464 412.17 211.266 411.114 210.474C410.058 209.682 408.791 205.075 408.553 202.554C408.316 200.033 408.685 198.488 410.903 197.459C412.602 196.695 414.481 196.421 416.328 196.667C417.145 196.71 417.946 196.915 418.684 197.268C419.423 197.621 420.084 198.117 420.631 198.726C421.727 199.914 425.713 206.989 424.644 208.217V208.256Z" fill="#263238"/>
<path d="M426.73 224.545L436.194 242.048L456.337 216.242L463.637 222.948C463.637 222.948 445.553 262.363 445.223 260.713L435.864 245.757L426.202 258.007L423.944 230.287L426.73 224.545Z" fill="#DBDBDB"/>
<path d="M424.314 244.372C424.09 239.778 423.733 235.132 423.733 230.578C423.733 230.406 423.971 230.314 424.037 230.498C425.449 234.788 426.202 252.344 426.677 256.516C427.073 255.988 435.679 245.678 435.798 245.81C437.712 248.134 444.576 259.01 445.038 260.027C447.889 253.77 458.977 230.987 462.515 224.915C462.532 224.876 462.564 224.846 462.604 224.831C462.644 224.817 462.687 224.818 462.726 224.836C462.764 224.853 462.794 224.885 462.809 224.925C462.824 224.964 462.823 225.008 462.805 225.047C460.403 231.647 445.79 262.297 445.513 262.244C441.967 257.138 438.689 251.851 435.692 246.404C434.293 248.596 425.726 260.093 425.621 259.42C424.914 254.431 424.478 249.407 424.314 244.372Z" fill="#263238"/>
<path d="M398.521 558.36H183.124C181.922 557.264 180.814 556.142 179.771 555.007C168.26 542.467 165.449 527.947 166.03 515.407C166.584 504.972 169.166 494.745 173.633 485.298H175.058H176.695H177.804H179.124L250.932 483.16H251.737H252.278L259.868 482.935H260.33L263.076 482.856L266.402 482.75H267.96C267.96 482.75 267.868 484.387 267.815 486.803C267.815 487.78 267.815 488.888 267.815 490.076C267.815 491.264 267.815 492.32 267.894 493.495C267.956 496.109 268.23 498.714 268.712 501.283C268.881 502.815 269.517 504.258 270.534 505.415C270.904 505.719 273.887 506.207 278.718 506.946L280.394 507.197L282.216 507.474L289.687 508.636L290.506 508.755H290.783C295.258 509.467 300.274 510.312 305.633 511.302L307.534 511.658C309.302 511.988 311.111 512.345 312.946 512.715L313.777 512.873C316.879 513.506 320.06 514.193 323.268 514.906C324.588 515.196 325.908 515.486 327.228 515.803C331.28 516.754 335.386 517.796 339.464 518.918C366.379 526.376 392.159 537.662 397.716 554.717C398.066 555.912 398.335 557.129 398.521 558.36Z" fill="#37474F"/>
<path d="M206.105 558.36H202.897C198.119 555.983 193.788 552.799 190.093 548.948C184.697 543.116 180.936 535.963 179.19 528.211C179.005 527.498 178.847 526.772 178.702 526.046L178.424 524.581C177.872 521.361 177.546 518.106 177.448 514.84C177.348 511.869 177.401 508.895 177.606 505.93C177.887 501.638 178.394 497.364 179.124 493.126L179.362 491.806C179.376 491.772 179.402 491.745 179.435 491.728C179.467 491.711 179.505 491.706 179.54 491.714C179.576 491.722 179.608 491.742 179.631 491.771C179.654 491.799 179.666 491.835 179.665 491.872L179.428 493.192C179.045 495.277 178.688 497.376 178.49 499.475C177.967 504.592 177.839 509.742 178.108 514.879C178.315 518.588 178.823 522.274 179.626 525.901C179.784 526.654 179.969 527.393 180.167 528.132C180.365 528.871 180.629 529.769 180.88 530.574C183.948 540.632 190.53 549.253 199.426 554.862C201.572 556.174 203.804 557.343 206.105 558.36Z" fill="#263238"/>
<path d="M394.126 558.36H157.331C152.051 543.985 151.919 528.818 153.516 515.988C154.845 505.216 157.533 494.656 161.515 484.559L174.979 484.163H176.629H177.184H178.504L251.104 482.011H251.671H252.437L259.697 481.787H260.792L263.234 481.708L266.561 481.615C266.561 481.615 266.482 482.011 266.323 482.737C266.033 484.136 265.452 486.697 264.594 490.142C263.974 492.584 263.274 495.422 262.297 498.524C262.007 499.528 261.703 500.557 261.386 501.613C260.872 503.237 260.344 504.913 259.763 506.616C259.42 507.632 259.063 508.649 258.694 509.678C258.179 511.144 257.624 512.609 257.044 514.087L256.885 514.523V514.681L259.354 515.156L259.71 515.222L262.654 515.816C265.835 516.463 270.23 517.374 275.537 518.562L277.081 518.905C280.408 519.658 284.064 520.502 287.971 521.44L293.806 522.865L295.469 523.274L299.31 524.251C302.122 524.964 305.012 525.73 307.956 526.522L309.883 527.036L310.596 527.234C315.11 528.462 319.77 529.782 324.496 531.194C343.451 536.791 363.62 543.748 381.084 551.905L381.361 552.037C385.796 553.991 390.086 556.156 394.126 558.36Z" fill="#37474F"/>
<path d="M275.339 507.355C272.289 508.021 269.31 508.976 266.442 510.206C263.419 511.355 260.449 512.662 257.545 514.074C251.841 516.91 246.293 520.052 240.926 523.486C240.755 523.591 240.926 523.816 241.098 523.736C246.774 520.78 252.648 518.126 258.522 515.592L267.01 511.936C269.938 510.818 272.806 509.549 275.603 508.134C275.959 507.936 275.761 507.276 275.339 507.355Z" fill="#263238"/>
<path d="M269.042 481.417C267.841 486.209 266.785 491.053 265.412 495.805C264.779 497.983 264.158 500.201 263.34 502.313C262.64 504.095 261.584 506.141 259.525 506.537C257.136 506.999 256.463 504.966 256.661 502.999C256.872 500.795 257.44 498.604 257.862 496.399C258.364 493.904 258.865 491.423 259.327 488.915C259.552 487.674 259.789 486.42 260 485.166C260 484.849 260.278 482.46 260.449 481.774C260.449 481.774 260.515 481.892 260.581 481.879H260.674C260.707 481.876 260.738 481.863 260.764 481.841C260.79 481.82 260.809 481.792 260.819 481.76C260.841 481.694 260.841 481.623 260.819 481.556C260.798 481.49 260.756 481.432 260.7 481.391C260.667 481.368 260.628 481.356 260.588 481.356C260.548 481.356 260.509 481.368 260.476 481.391C260.027 481.642 259.987 482.262 259.842 482.711C259.459 483.925 259.063 485.14 258.707 486.367C258.047 488.651 257.387 490.948 256.819 493.258C256.252 495.568 255.671 497.878 255.103 500.188C254.508 501.881 254.345 503.695 254.628 505.468C254.845 506.316 255.33 507.071 256.01 507.623C256.689 508.174 257.529 508.492 258.403 508.53C258.324 508.688 258.218 508.847 258.152 509.005C257.941 509.48 257.783 509.982 257.611 510.457C257.44 510.932 257.255 511.447 257.11 511.962C257.045 512.204 257.001 512.452 256.978 512.701C256.978 512.978 256.978 513.256 256.978 513.533C256.967 513.625 256.989 513.717 257.038 513.796C257.087 513.874 257.162 513.933 257.249 513.964C257.336 513.995 257.431 513.995 257.519 513.964C257.606 513.934 257.68 513.875 257.73 513.797C257.867 513.564 258.017 513.34 258.179 513.124C258.32 512.872 258.435 512.607 258.522 512.332C258.68 511.843 258.812 511.368 258.944 510.88C259.076 510.391 259.208 509.903 259.301 509.414C259.393 508.926 259.301 508.82 259.393 508.53C260.392 508.435 261.345 508.07 262.152 507.474C263.509 506.32 264.504 504.798 265.016 503.092C265.742 501.098 266.336 499.026 266.864 496.98C268.331 491.926 269.356 486.754 269.927 481.523C269.926 481.413 269.886 481.308 269.813 481.226C269.74 481.145 269.64 481.093 269.531 481.08C269.423 481.067 269.313 481.094 269.223 481.156C269.133 481.218 269.069 481.311 269.042 481.417Z" fill="#263238"/>
<path d="M206.554 493.152C206.118 495.541 205.854 497.944 205.3 500.306C204.745 502.669 204.138 504.913 203.372 507.17C202.688 509.354 201.706 511.432 200.455 513.348C199.14 515.145 197.57 516.741 195.796 518.087C192.408 520.774 188.605 522.892 184.536 524.357C182.491 525.098 180.401 525.711 178.279 526.192C177.17 526.442 176.048 526.64 174.926 526.786C174.014 526.817 173.117 527.027 172.286 527.406C172.207 527.456 172.142 527.525 172.097 527.607C172.052 527.689 172.028 527.781 172.028 527.875C172.028 527.968 172.052 528.06 172.097 528.142C172.142 528.224 172.207 528.293 172.286 528.343C173.725 529.043 175.732 528.66 177.263 528.502C179.043 528.319 180.808 528.005 182.543 527.564C186.078 526.626 189.464 525.196 192.601 523.314C195.778 521.521 198.622 519.195 201.01 516.437C203.245 513.539 204.781 510.165 205.498 506.576C206.61 502.205 207.103 497.7 206.963 493.192C206.945 493.154 206.919 493.121 206.885 493.097C206.851 493.073 206.811 493.058 206.77 493.054C206.728 493.05 206.686 493.057 206.648 493.074C206.611 493.091 206.578 493.118 206.554 493.152Z" fill="#263238"/>
<path d="M171.719 558.36H170.636C167.369 550.716 165.328 542.603 164.591 534.323C164.017 528.074 163.924 521.789 164.314 515.526C164.762 507.078 165.818 498.643 166.795 490.235C166.795 490.037 167.112 490.103 167.086 490.235C166.65 493.891 166.201 497.561 165.766 501.23C165.304 505.837 164.947 510.602 164.802 515.42C164.393 530.178 165.792 545.371 171.719 558.36Z" fill="#263238"/>
<path d="M393.888 558.36H392.766C377.439 550.779 361.697 544.067 345.616 538.256C338.576 535.696 331.536 533.324 324.496 531.142C319.902 529.716 315.282 528.374 310.636 527.116L309.936 526.931L307.982 526.403C305.052 525.628 302.117 524.885 299.178 524.172L295.548 523.301L293.898 522.918L289.674 521.981L287.932 521.611C284.288 520.832 280.632 520.12 276.962 519.433L275.286 519.13C271.124 518.382 266.961 517.66 262.799 516.965L257.4 516.12C256.687 516.001 256.872 514.8 257.598 514.8L259.406 515.011H259.816L262.68 515.354C267.115 515.922 271.537 516.608 275.88 517.387L277.345 517.664C281.006 518.324 284.649 519.05 288.275 519.842L293.383 520.978L295.073 521.374C297.238 521.893 299.402 522.425 301.567 522.971C303.89 523.552 306.205 524.154 308.51 524.779L309.487 525.043L310.517 525.32L314.86 526.522C318.199 527.472 321.539 528.449 324.865 529.492C340.302 534.241 355.431 539.936 370.168 546.546C373.846 548.2 377.485 549.921 381.084 551.707L381.361 551.839C385.559 553.991 389.73 556.169 393.888 558.36Z" fill="#263238"/>
<path d="M288.314 506.101C285.094 509.032 147.682 516.991 147.074 516.081C146.467 515.17 177.857 367.633 227.33 347.266C235.171 344.045 256.08 345.154 258.469 348.071C278.309 372.306 290.4 504.24 288.314 506.101Z" fill="#EBEBEB"/>
<path d="M248.081 381.638L254.311 369.824L263.05 378.814L261.254 388.08L252.912 389.4L248.081 381.638Z" fill="#263238"/>
<path d="M252.912 389.4L251.684 483.582L267.01 504.86L278.348 478.896L261.254 388.08L252.912 389.4Z" fill="#263238"/>
<path d="M147.074 516.12C147.682 517.044 285.094 509.058 288.314 506.141C290.176 504.478 280.315 394.324 263.459 356.717C265.94 368.095 270.6 394.997 264.779 416.434C247.274 396.547 233.156 373.92 222.988 349.457C176.022 376.2 146.52 515.302 147.074 516.12Z" fill="#A6A6A6"/>
<path d="M251.843 368.584C244.147 369.442 232.703 356.44 228.756 346.566C228.492 345.88 230.287 339.306 232.082 331.214C233.152 326.304 234.234 320.8 234.854 315.718L265.822 327.36C265.822 327.36 261.386 337.643 260.357 346.526C260.291 347.229 260.291 347.936 260.357 348.638C260.363 348.757 260.363 348.876 260.357 348.995C260.476 353.034 259.274 367.752 251.843 368.584Z" fill="#F7A9A0"/>
<path d="M236.953 316.496C237.164 323.968 239.224 346.183 257.017 348.77C258.114 348.927 259.222 348.998 260.33 348.982C260.324 348.867 260.324 348.753 260.33 348.638C260.252 347.937 260.252 347.228 260.33 346.526C261.347 337.643 265.795 327.36 265.795 327.36L236.953 316.496Z" fill="#263238"/>
<path d="M223.859 285.292C222.196 297.093 233.284 328.68 242.431 334.673C255.71 343.345 274.877 341.352 281.609 325.987C288.13 311.085 272.95 270.178 262.97 264.99C248.252 257.4 226.301 267.855 223.859 285.292Z" fill="#F7A9A0"/>
<path opacity="0.3" d="M280.711 299.455C283.351 309.923 284.17 320.179 281.49 326.185C274.679 341.511 255.486 343.345 242.273 334.62C239.633 332.838 236.768 328.878 234.128 323.823C232.342 318.457 230.926 312.975 229.891 307.415C229.495 304.234 235.541 304.075 235.541 304.075C236.174 307.428 239.725 314.015 242.642 316.035C247.526 319.427 255.644 316.576 258.403 315.361C261.162 314.147 266.059 309.778 272.237 309.765C274.982 309.765 277.86 310.939 279.893 309.091C281.926 307.243 280.79 299.944 280.711 299.455Z" fill="#263238"/>
<path d="M260.41 300.406C260.41 300.34 260.291 300.577 260.317 300.656C261.175 302.729 261.809 305.25 260.172 306.649C260.172 306.649 260.172 306.794 260.172 306.768C262.416 305.567 261.558 302.28 260.41 300.406Z" fill="#263238"/>
<path d="M257.717 298.927C254.258 299.93 256.529 306.847 259.736 305.857C262.944 304.867 260.634 298.082 257.717 298.927Z" fill="#263238"/>
<path d="M272.065 296.287C272.065 296.195 272.263 296.287 272.29 296.419C272.923 298.571 274.019 300.92 276.17 300.986C276.236 300.986 276.263 301.105 276.17 301.118C273.742 301.567 272.316 298.426 272.065 296.287Z" fill="#263238"/>
<path d="M273.24 293.436C276.58 292.05 279.114 298.822 276.025 300.036C272.936 301.25 270.428 294.611 273.24 293.436Z" fill="#263238"/>
<path d="M253.981 296.683C254.795 296.117 255.58 295.509 256.331 294.862C257.215 294.162 258.007 293.687 258.364 292.552C258.434 292.222 258.394 291.879 258.248 291.576C258.102 291.272 257.859 291.026 257.558 290.875C256.914 290.669 256.226 290.637 255.565 290.783C254.904 290.929 254.294 291.248 253.796 291.707C252.655 292.483 251.842 293.653 251.513 294.994C251.456 295.305 251.49 295.626 251.611 295.919C251.733 296.211 251.937 296.462 252.198 296.64C252.459 296.819 252.767 296.918 253.083 296.926C253.4 296.934 253.712 296.849 253.981 296.683Z" fill="#263238"/>
<path d="M274.745 289.08C273.742 289.239 272.791 289.212 271.775 289.278C270.744 289.486 269.673 289.351 268.726 288.895C268.452 288.696 268.254 288.41 268.163 288.085C268.072 287.759 268.094 287.412 268.224 287.1C268.566 286.519 269.057 286.039 269.646 285.712C270.236 285.385 270.903 285.221 271.577 285.239C272.948 285.055 274.338 285.394 275.471 286.189C275.722 286.382 275.912 286.644 276.016 286.943C276.12 287.243 276.135 287.566 276.058 287.873C275.98 288.181 275.815 288.459 275.582 288.673C275.348 288.887 275.057 289.029 274.745 289.08Z" fill="#263238"/>
<path d="M263.538 319.968C264.145 320.417 264.766 321.077 265.571 321.037C266.399 320.925 267.192 320.632 267.894 320.179C267.909 320.172 267.925 320.17 267.942 320.173C267.958 320.175 267.973 320.183 267.984 320.195C267.996 320.206 268.003 320.221 268.006 320.237C268.009 320.253 268.007 320.27 268 320.285C267.741 320.758 267.359 321.153 266.894 321.427C266.429 321.701 265.899 321.845 265.36 321.842C264.893 321.781 264.454 321.583 264.1 321.273C263.745 320.963 263.49 320.555 263.366 320.1C263.287 319.968 263.459 319.902 263.538 319.968Z" fill="#263238"/>
<path d="M264.198 312.972C265.017 313.633 265.964 314.118 266.979 314.398C267.994 314.677 269.056 314.744 270.098 314.596C271.007 314.467 271.895 314.219 272.738 313.856C272.91 313.79 273.504 313.5 273.662 313.408C273.768 313.348 273.852 313.254 273.9 313.142C273.947 313.03 273.957 312.905 273.926 312.787L272.29 308.286C272.976 308.392 276.487 308.748 276.157 307.903C273.385 300.973 270.323 293.251 266.099 286.928C266.069 286.891 266.026 286.864 265.979 286.854C265.932 286.843 265.882 286.849 265.839 286.871C265.796 286.893 265.761 286.929 265.741 286.973C265.721 287.017 265.717 287.066 265.729 287.113C268.118 293.885 271.696 300.194 274.204 306.913C272.952 306.762 271.685 306.793 270.442 307.006C270.323 307.006 272.593 312.47 272.593 312.523C269.953 313.843 267.617 313.632 264.33 312.668C264.132 312.642 264 312.84 264.198 312.972Z" fill="#263238"/>
<path d="M271.445 313.223C270.921 314.672 270.035 315.963 268.871 316.972C268.222 317.5 267.423 317.81 266.587 317.856C264.766 317.962 264.224 316.417 264.106 315.005C264.055 314.247 264.09 313.485 264.211 312.734C266.51 313.659 269.043 313.83 271.445 313.223Z" fill="#263238"/>
<path d="M268.871 316.972C268.222 317.5 267.423 317.81 266.587 317.856C264.766 317.962 264.224 316.417 264.106 315.005C265.005 314.746 265.966 314.8 266.831 315.157C267.696 315.514 268.415 316.154 268.871 316.972Z" fill="#FF9CBD"/>
<path d="M232.663 310.622C238.234 309.131 234.881 295.469 234.881 295.469C234.881 295.469 243.17 292.169 244.979 279.523C244.979 279.523 257.453 284.222 266.389 280.645C280.394 275.048 276.157 256.225 269.927 253.48C261.109 249.599 248.992 260.344 248.992 260.344C248.992 260.344 227.04 258.72 223.687 274.098C221.032 274.837 218.755 276.556 217.317 278.908C215.879 281.26 215.387 284.069 215.939 286.77C217.378 297.132 228.505 311.718 232.663 310.622Z" fill="#263238"/>
<path d="M233.191 297.502C237.223 295.928 240.62 293.064 242.854 289.357C245.071 285.397 245.705 280.025 243.58 275.959C243.461 275.735 243.83 275.563 243.936 275.801C245.942 280.394 246.655 285.384 244.424 290.057C243.423 292.226 241.869 294.093 239.918 295.471C237.967 296.85 235.689 297.691 233.31 297.911C233.086 297.924 232.954 297.594 233.191 297.502Z" fill="#263238"/>
<path d="M213.972 280.909C216.097 276.699 220.361 275.247 224.704 274.521C224.954 274.521 225.02 274.877 224.77 274.903C220.414 275.286 216.704 278.995 215.2 282.929C213.695 286.863 215.081 290.981 216.731 294.571C219.872 301.514 225.472 307.048 232.452 310.108C232.469 310.122 232.481 310.142 232.486 310.164C232.491 310.186 232.489 310.208 232.48 310.229C232.471 310.25 232.456 310.267 232.437 310.278C232.417 310.29 232.395 310.295 232.373 310.293C228.451 308.806 224.873 306.537 221.857 303.623C218.841 300.709 216.45 297.212 214.83 293.344C213.286 289.529 212.018 284.803 213.972 280.909Z" fill="#263238"/>
<path d="M248.556 261.136C249.788 257.822 252.186 255.072 255.301 253.4C259.114 251.486 263.501 251.049 267.617 252.173C269.263 252.668 270.748 253.589 271.923 254.843C273.099 256.097 273.922 257.64 274.309 259.314C275.365 263.195 274.309 267.234 272.686 270.824C272.677 270.838 272.666 270.849 272.652 270.857C272.638 270.865 272.622 270.869 272.606 270.869C272.59 270.869 272.575 270.865 272.561 270.857C272.547 270.849 272.535 270.838 272.527 270.824C273.912 267.554 274.258 263.936 273.517 260.462C273.135 258.814 272.295 257.307 271.095 256.114C269.895 254.921 268.383 254.09 266.732 253.717C260.225 252.278 251.579 254.483 248.912 261.347C248.884 261.394 248.839 261.428 248.786 261.442C248.732 261.456 248.676 261.447 248.629 261.419C248.581 261.391 248.547 261.346 248.534 261.293C248.52 261.239 248.528 261.183 248.556 261.136Z" fill="#263238"/>
<path d="M235.105 310.438C235.105 310.438 225.865 301.198 221.615 304.735C217.364 308.273 225.575 322.41 231.515 323.492C232.27 323.683 233.055 323.719 233.824 323.598C234.593 323.477 235.33 323.202 235.99 322.789C236.65 322.376 237.219 321.833 237.664 321.194C238.108 320.555 238.419 319.833 238.577 319.07L235.105 310.438Z" fill="#F7A9A0"/>
<path d="M224.07 308.748C223.991 308.748 223.991 308.88 224.07 308.906C228.268 309.791 230.987 313.051 233.099 316.562C231.673 315.322 229.944 314.807 228.254 316.562C228.162 316.655 228.254 316.8 228.4 316.76C229.048 316.415 229.788 316.281 230.517 316.375C231.245 316.47 231.926 316.789 232.465 317.288C233.361 318.126 234.163 319.06 234.854 320.074C235.105 320.39 235.699 320.074 235.501 319.704V319.625C234.656 314.582 229.522 308.286 224.07 308.748Z" fill="#263238"/>
<path d="M260.225 347.252L253.321 366.287L229.165 343.319L222.816 351.239C222.816 351.239 246.932 388.199 247.025 386.509L254.206 370.049L265.769 380.939L263.894 352.691L260.225 347.252Z" fill="#EBEBEB"/>
<path d="M265.637 366.854C265.162 362.195 264.832 357.496 264.145 352.876C264.145 352.704 263.855 352.638 263.828 352.876C263.05 357.416 264.924 375.197 265.043 379.474C264.554 378.998 254.338 369.917 254.245 370.062C252.661 372.702 247.381 384.674 247.025 385.757C243.21 379.896 228.624 358.565 224.162 353.034C224.14 352.997 224.103 352.971 224.061 352.961C224.019 352.951 223.975 352.958 223.938 352.981C223.901 353.004 223.875 353.04 223.865 353.083C223.855 353.125 223.862 353.169 223.885 353.206C227.291 359.436 246.616 388.159 246.893 388.067C249.696 382.406 252.203 376.604 254.404 370.682C256.146 372.676 266.495 382.972 266.495 382.272C266.482 377.121 266.196 371.975 265.637 366.854Z" fill="#263238"/>
<path d="M214.922 366.432C192.482 409.266 166.584 473.088 180.51 487.014C194.436 500.94 237.996 523.024 271.59 523.974C278.098 524.146 286.11 468.534 279.167 468.019C261.096 466.739 225.971 451.44 223.265 448.8C221.945 447.48 235.277 398.165 237.956 370.92C241.177 337.92 228.36 340.811 214.922 366.432Z" fill="#F7A9A0"/>
<path d="M258.377 465.617C258.377 465.617 261.809 466.184 280.421 466.198C293.291 466.198 324.628 474.474 337.788 508.16C342.817 521.07 335.966 530.244 328.35 517.77C322.978 508.979 320.021 502.418 317.46 500.042C317.46 500.042 315.506 515.684 307.468 520.014C300.429 523.787 293.133 527.06 285.635 529.808C284.812 528.539 284.076 527.216 283.43 525.848C280.109 527.283 276.45 527.751 272.875 527.198C269.299 526.644 265.953 525.092 263.221 522.72L258.377 465.617Z" fill="#F7A9A0"/>
<path d="M292.697 468.178C297.779 472.613 308.378 482.209 314.332 493.073C320.932 505.138 330.396 530.165 321.433 534.943C314.833 538.454 310.411 529.214 310.411 529.214C310.411 529.214 312.154 540.382 305.527 542.256C299.482 543.959 296.472 536.606 296.472 536.606C296.472 536.606 296.353 543.563 290.215 544.078C282.85 544.711 284.288 530.033 276.276 524.212C274.468 522.905 292.697 468.178 292.697 468.178Z" fill="#F7A9A0"/>
<path d="M300.419 497.917C304.498 502.88 310.9 516.529 310.57 528.977C310.57 529.254 310.345 529.399 310.292 529.149C308.243 518.392 304.887 507.926 300.3 497.983C300.26 497.917 300.366 497.864 300.419 497.917Z" fill="#263238"/>
<path d="M288.42 504.94C291.509 509.586 297.488 523.948 296.71 536.54C296.71 536.831 296.472 536.963 296.432 536.699C294.927 525.866 292.199 515.238 288.301 505.019C288.275 504.926 288.38 504.887 288.42 504.94Z" fill="#263238"/>
<path d="M267.194 463.545L253.44 526.799C253.44 526.799 182.899 500.28 176.88 483.239C170.861 466.198 192.073 403.26 213.088 366.577C234.102 329.894 240.557 345.959 238.894 374.286C237.23 402.613 225.205 445.289 225.614 447.097C226.024 448.906 267.194 463.545 267.194 463.545Z" fill="#A6A6A6"/>
<path d="M255.38 463.32C252.014 477.075 249.203 490.974 246.404 504.861C245.612 508.821 244.886 512.715 244.042 516.635C244.049 516.655 244.063 516.673 244.08 516.685C244.098 516.697 244.119 516.704 244.141 516.704C244.162 516.704 244.183 516.697 244.201 516.685C244.219 516.673 244.232 516.655 244.24 516.635C245.929 509.758 247.804 502.933 249.401 496.03C250.998 489.126 252.463 482.183 253.757 475.213C254.483 471.253 255.235 467.293 255.842 463.333C255.831 463.281 255.803 463.234 255.762 463.2C255.721 463.165 255.67 463.146 255.617 463.144C255.563 463.143 255.511 463.159 255.468 463.191C255.425 463.223 255.394 463.269 255.38 463.32Z" fill="#263238"/>
<path d="M237.508 399.366C236.874 401.126 236.227 402.886 235.567 404.646C235.303 405.372 235.013 406.111 234.722 406.85C235.171 404.488 235.607 402.138 236.042 399.775C236.57 396.528 237.138 393.268 237.508 389.994C237.508 389.888 237.349 389.849 237.323 389.994C235.726 395.538 234.577 401.214 233.363 406.85C232.148 412.487 231.106 418.295 230.076 424.01C229.786 425.594 229.535 427.192 229.297 428.789C229.008 430.338 228.809 431.903 228.703 433.475C228.703 433.503 228.714 433.53 228.734 433.549C228.754 433.569 228.781 433.58 228.809 433.58C228.837 433.58 228.864 433.569 228.883 433.549C228.903 433.53 228.914 433.503 228.914 433.475C229.774 430.84 230.47 428.156 231 425.436C231.647 422.624 232.188 419.8 232.769 416.975C233.35 414.15 233.838 411.695 234.353 409.055C235.065 407.661 235.678 406.219 236.188 404.738C236.813 403.014 237.325 401.25 237.719 399.458C237.706 399.326 237.6 399.274 237.508 399.366Z" fill="#263238"/>
<path d="M406.454 558.36H151.694C146.414 542.929 141.887 524.04 144.131 508.49C146.771 490.406 159.02 452.707 173.804 418.73C185.566 391.657 198.884 366.934 210.263 356.334C220.427 346.817 227.819 342.58 228.413 341.814C229.007 341.048 230.089 335.597 230.38 335.095C230.38 335.095 230.696 335.095 231.224 335.095C232.967 335.399 237.204 336.415 241.996 337.616C249.533 339.544 258.43 341.959 260.977 342.896C261.232 342.965 261.473 343.077 261.69 343.226C262.205 343.979 264.33 351.529 264.607 352.07C264.884 352.612 286.057 434.544 286.928 438.055C287.8 441.566 324.02 455.334 345.312 481.378C366.604 507.421 395.314 531.538 399.287 541.649C401.452 547.364 404.329 553.806 406.454 558.36Z" fill="#FEA000"/>
<path opacity="0.1" d="M201.96 369.495C200.682 369.966 199.46 370.577 198.317 371.316L198.066 371.699C199.544 371.535 200.995 371.181 202.382 370.643C203.891 370.118 205.314 369.376 206.606 368.439C205.016 368.571 203.452 368.926 201.96 369.495ZM273.24 385.335L272.567 385.81C272.828 385.797 273.088 385.771 273.346 385.731C273.24 385.546 273.24 385.44 273.24 385.282V385.335ZM234.96 410.863C233.453 411.406 232.028 412.152 230.723 413.081C232.324 412.961 233.899 412.605 235.396 412.025C236.903 411.488 238.326 410.737 239.62 409.794C238.027 409.914 236.458 410.256 234.96 410.811V410.863ZM215.16 467.808C213.652 468.333 212.229 469.075 210.936 470.013C214.131 469.717 217.19 468.583 219.806 466.726C218.213 466.86 216.648 467.225 215.16 467.808ZM182.53 427.878C181.025 428.412 179.606 429.164 178.319 430.109C179.911 429.979 181.476 429.618 182.965 429.04C184.477 428.511 185.9 427.759 187.189 426.809C185.579 426.935 183.996 427.296 182.49 427.878H182.53ZM216.282 504.346C214.776 504.877 213.357 505.629 212.071 506.576C213.664 506.442 215.229 506.077 216.718 505.494C218.231 504.971 219.656 504.219 220.942 503.263C219.331 503.394 217.748 503.759 216.242 504.346H216.282ZM259.433 528.937C257.931 529.48 256.514 530.23 255.222 531.168C256.815 531.033 258.38 530.669 259.868 530.086C261.379 529.562 262.803 528.814 264.092 527.868C262.482 527.995 260.899 528.355 259.393 528.937H259.433ZM257.796 466.158C256.293 466.69 254.874 467.437 253.585 468.376C256.778 468.064 259.835 466.927 262.456 465.076C260.845 465.207 259.262 465.571 257.756 466.158H257.796ZM299.6 494.089C298.098 494.629 296.68 495.38 295.39 496.32C296.978 496.184 298.538 495.819 300.023 495.238C301.539 494.717 302.968 493.969 304.26 493.02C302.649 493.14 301.065 493.501 299.561 494.089H299.6ZM337.92 473.497C337.49 473.75 337.076 474.028 336.679 474.329C337.297 474.289 337.91 474.201 338.514 474.065L337.92 473.497ZM368.927 525.36C367.423 525.897 366.005 526.648 364.716 527.591C366.309 527.456 367.874 527.092 369.362 526.508C370.876 525.985 372.301 525.233 373.586 524.278C371.989 524.412 370.42 524.777 368.927 525.36ZM178.504 469.3C177.956 467.797 177.205 466.375 176.273 465.076C176.408 466.673 176.772 468.242 177.355 469.735C177.877 471.247 178.625 472.671 179.573 473.959C179.447 472.362 179.087 470.792 178.504 469.3ZM185.764 509.085C185.226 507.58 184.479 506.158 183.546 504.861C183.683 506.456 184.043 508.024 184.615 509.52C185.149 511.033 185.9 512.461 186.846 513.757C186.711 512.156 186.347 510.582 185.764 509.085ZM148.157 540.408C147.62 538.896 146.869 537.469 145.926 536.171C146.061 537.772 146.425 539.346 147.008 540.844C147.532 542.358 148.284 543.782 149.239 545.068C149.104 543.471 148.74 541.901 148.157 540.408ZM207.636 554.466C207.101 552.96 206.354 551.538 205.418 550.242C205.544 551.839 205.904 553.409 206.488 554.902C206.925 556.129 207.501 557.303 208.204 558.4H208.652C208.464 557.054 208.123 555.735 207.636 554.466ZM233.851 445.223C233.323 443.711 232.571 442.288 231.62 440.999C231.762 442.591 232.126 444.155 232.703 445.645C233.232 447.154 233.979 448.577 234.92 449.869C234.798 448.276 234.437 446.71 233.851 445.223ZM281.965 510.668C281.441 509.157 280.694 507.734 279.748 506.445C279.891 508.035 280.25 509.598 280.817 511.091C281.356 512.598 282.107 514.02 283.048 515.315C282.914 513.722 282.55 512.157 281.965 510.668ZM298.703 468.165C298.183 466.649 297.43 465.224 296.472 463.941C296.616 465.532 296.98 467.096 297.554 468.587C298.083 470.098 298.835 471.522 299.785 472.811C299.652 471.218 299.287 469.653 298.703 468.165ZM341.682 498.723C341.158 497.212 340.411 495.788 339.464 494.498C339.608 496.089 339.967 497.652 340.534 499.145C341.073 500.652 341.824 502.074 342.764 503.369C342.631 501.776 342.267 500.211 341.682 498.723ZM375.474 549.028C374.951 547.51 374.199 546.081 373.243 544.79C373.391 546.381 373.755 547.945 374.326 549.437C374.859 550.95 375.611 552.378 376.556 553.674C376.425 552.081 376.06 550.515 375.474 549.028ZM214.276 393.268C213.728 391.769 212.977 390.352 212.045 389.057C212.175 390.649 212.535 392.214 213.114 393.703C213.649 395.21 214.395 396.632 215.332 397.927C215.207 396.327 214.851 394.753 214.276 393.255V393.268ZM217.048 351.265C216.955 351.041 216.876 350.817 216.77 350.592L215.78 351.424L215.886 351.701C216.421 353.207 217.167 354.63 218.104 355.925C217.985 354.324 217.629 352.749 217.048 351.252V351.265ZM257.11 363.594C256.573 362.086 255.821 360.664 254.879 359.37C255.014 360.967 255.378 362.537 255.961 364.03C256.494 365.538 257.236 366.965 258.166 368.267C258.047 366.661 257.691 365.082 257.11 363.581V363.594ZM245.678 340.349C244.232 339.676 242.699 339.205 241.124 338.95C242.345 339.986 243.71 340.84 245.177 341.484C246.616 342.179 248.151 342.655 249.731 342.896C248.505 341.86 247.141 340.998 245.678 340.336V340.349ZM198.079 449.328C196.635 448.635 195.096 448.159 193.512 447.916C196.001 449.948 198.968 451.311 202.132 451.876C200.91 450.833 199.546 449.97 198.079 449.315V449.328ZM283.087 423.496C282.303 423.225 281.494 423.034 280.672 422.928C281.517 423.652 282.443 424.277 283.43 424.789C283.325 424.354 283.206 423.918 283.087 423.483V423.496ZM162.439 490.631C160.988 489.942 159.446 489.466 157.859 489.218C160.335 491.272 163.307 492.638 166.478 493.178C165.26 492.138 163.9 491.276 162.439 490.618V490.631ZM257.149 435.6C255.696 434.917 254.154 434.442 252.569 434.188C253.792 435.222 255.156 436.075 256.621 436.722C258.066 437.402 259.599 437.877 261.175 438.135C259.964 437.098 258.607 436.244 257.149 435.6ZM256.08 498.67C254.623 497.996 253.083 497.521 251.5 497.257C252.725 498.291 254.089 499.148 255.552 499.805C257.003 500.48 258.54 500.956 260.119 501.217C258.898 500.184 257.539 499.326 256.08 498.67ZM321.658 482.896C320.21 482.211 318.672 481.735 317.09 481.483C318.311 482.52 319.676 483.374 321.143 484.018C322.587 484.701 324.12 485.176 325.697 485.43C324.491 484.4 323.144 483.546 321.697 482.896H321.658ZM341.339 525.822C339.888 525.147 338.351 524.676 336.772 524.423C337.992 525.46 339.358 526.313 340.824 526.957C342.268 527.64 343.801 528.116 345.378 528.37C344.171 527.337 342.825 526.479 341.378 525.822H341.339ZM245.639 385.519C244.197 384.835 242.663 384.363 241.085 384.12C242.309 385.148 243.674 385.997 245.137 386.641C246.578 387.335 248.112 387.815 249.691 388.067C248.48 387.034 247.129 386.176 245.678 385.519H245.639ZM185.724 399.656C185.041 401.1 184.565 402.633 184.312 404.211C185.348 402.994 186.202 401.634 186.846 400.171C187.541 398.732 188.017 397.197 188.258 395.617C187.228 396.838 186.375 398.198 185.724 399.656ZM234.036 483.411C233.366 484.869 232.891 486.409 232.624 487.991C233.657 486.765 234.514 485.401 235.171 483.938C235.847 482.487 236.322 480.951 236.584 479.371C235.553 480.595 234.696 481.954 234.036 483.411ZM263.617 409.491C262.94 410.937 262.465 412.469 262.205 414.045C263.244 412.827 264.102 411.467 264.752 410.005C265.425 408.559 265.896 407.026 266.152 405.451C265.112 406.665 264.258 408.027 263.617 409.491ZM274.639 482.935C273.962 484.381 273.487 485.914 273.227 487.489C274.265 486.277 275.123 484.921 275.774 483.463C276.455 482.013 276.934 480.476 277.2 478.896C276.157 480.113 275.295 481.473 274.639 482.935ZM316.628 456.535C316.612 456.59 316.59 456.643 316.562 456.694C315.883 458.139 315.408 459.672 315.15 461.248C316.184 460.059 317.038 458.725 317.684 457.288L316.628 456.535ZM362.762 501.098C362.13 502.494 361.686 503.968 361.442 505.481C362.342 504.443 363.097 503.289 363.686 502.049L362.762 501.098ZM197.498 487.701C196.831 489.15 196.356 490.681 196.086 492.255C197.116 491.036 197.973 489.681 198.634 488.229C199.301 486.769 199.776 485.23 200.046 483.648C199.011 484.882 198.153 486.255 197.498 487.727V487.701ZM299.64 527.063C298.132 527.587 296.709 528.33 295.416 529.267C298.611 528.971 301.67 527.838 304.286 525.98C302.693 526.115 301.128 526.48 299.64 527.063ZM282.018 545.662C281.335 547.105 280.859 548.639 280.606 550.216C281.639 548.995 282.496 547.635 283.153 546.176C283.824 544.725 284.295 543.188 284.552 541.609C283.52 542.831 282.671 544.196 282.031 545.662H282.018ZM318.872 511.936C318.2 513.382 317.729 514.915 317.473 516.49C318.504 515.269 319.357 513.91 320.008 512.451C320.681 510.994 321.156 509.453 321.42 507.87C320.391 509.101 319.538 510.47 318.886 511.936H318.872ZM397.32 538.191C397.003 538.745 396.713 539.312 396.449 539.88C395.769 541.325 395.294 542.858 395.036 544.434C396.067 543.218 396.92 541.863 397.571 540.408C397.729 540.038 397.888 539.669 398.033 539.299C397.778 538.947 397.54 538.578 397.32 538.191ZM205.92 530.64C204.417 531.172 202.998 531.919 201.709 532.858C203.3 532.721 204.865 532.361 206.356 531.788C207.865 531.255 209.288 530.503 210.58 529.558C208.982 529.692 207.413 530.057 205.92 530.64ZM160.723 521.057C159.221 521.592 157.803 522.339 156.512 523.275C159.71 522.965 162.772 521.828 165.396 519.975C163.783 520.093 162.196 520.444 160.684 521.017L160.723 521.057ZM318.12 545.16C317.597 543.646 316.844 542.222 315.889 540.936C316.037 542.527 316.401 544.09 316.972 545.583C317.506 547.092 318.257 548.515 319.202 549.806C319.069 548.213 318.705 546.648 318.12 545.16ZM250.866 554.4C250.342 552.889 249.595 551.465 248.648 550.176C248.792 551.766 249.151 553.33 249.718 554.823C250.171 556.05 250.75 557.226 251.447 558.334H251.882C251.668 557.008 251.304 555.711 250.8 554.466L250.866 554.4ZM231.066 539.497C229.611 538.821 228.07 538.35 226.486 538.098C227.709 539.132 229.073 539.985 230.538 540.633C231.987 541.314 233.524 541.79 235.105 542.045C233.86 541.03 232.478 540.194 231 539.563L231.066 539.497ZM181.196 540.976C179.749 540.291 178.211 539.815 176.629 539.563C177.853 540.6 179.217 541.457 180.682 542.111C182.128 542.784 183.661 543.255 185.236 543.51C184.001 542.496 182.627 541.665 181.157 541.042L181.196 540.976ZM346.856 548.896C346.173 550.339 345.698 551.873 345.444 553.45C346.483 552.233 347.341 550.872 347.992 549.411C348.664 547.964 349.135 546.431 349.391 544.856C348.334 546.094 347.466 547.482 346.817 548.975L346.856 548.896ZM236.016 516.846C235.334 518.295 234.859 519.832 234.604 521.413C235.634 520.193 236.488 518.833 237.138 517.374C237.818 515.92 238.293 514.378 238.55 512.794C237.517 514.017 236.663 515.381 236.016 516.846ZM163.931 554.4C163.344 555.667 162.901 556.995 162.611 558.36H162.994C163.799 557.29 164.485 556.135 165.04 554.915C165.719 553.46 166.194 551.919 166.452 550.335C165.427 551.566 164.578 552.934 163.931 554.4ZM278.52 449.618C277.829 451.058 277.358 452.593 277.121 454.173C278.158 452.952 279.011 451.587 279.655 450.12C280.332 448.674 280.808 447.142 281.068 445.566C280.031 446.79 279.174 448.154 278.52 449.618ZM211.2 424.618C210.507 426.068 210.026 427.611 209.774 429.198C211.822 426.718 213.187 423.747 213.734 420.578C212.705 421.8 211.852 423.159 211.2 424.618ZM230.142 365.521C229.451 366.961 228.98 368.496 228.743 370.075C229.776 368.857 230.63 367.497 231.277 366.036C231.953 364.585 232.428 363.048 232.69 361.469C231.639 362.69 230.768 364.055 230.102 365.521H230.142Z" fill="black"/>
<g opacity="0.1">
<path d="M301.422 447.256C298.109 455.176 291.086 471.478 288.301 475.24C284.592 480.242 277.174 478.896 271.603 479.371C266.033 479.846 247.46 488.413 245.203 487.489C242.946 486.565 272.092 470.633 277.53 467.214C282.968 463.795 287.021 443.85 286.928 438.174C287.219 439.56 293.106 442.53 301.422 447.256Z" fill="black"/>
<path d="M262.891 491.951C255.09 494.116 241.573 504.623 236.056 505.969C230.538 507.316 235.501 510.391 242.788 510.497C250.074 510.602 256.397 507.857 258.944 503.818C261.492 499.778 265.439 497.574 268.514 495.198C271.59 492.822 265.742 491.159 262.891 491.951Z" fill="black"/>
</g>
<path d="M230.578 342.144C233.693 342.646 236.755 343.464 239.818 344.282C242.88 345.101 245.784 345.84 248.767 346.632C254.786 348.256 256.344 348.665 262.231 350.737C262.262 350.75 262.286 350.773 262.3 350.803C262.314 350.833 262.316 350.867 262.307 350.899C262.297 350.93 262.275 350.957 262.247 350.974C262.218 350.99 262.184 350.995 262.152 350.988C257.539 350.121 252.975 349.015 248.477 347.675C245.494 346.865 242.524 346.038 239.567 345.193C236.544 344.322 233.468 343.517 230.538 342.395C230.512 342.383 230.491 342.363 230.477 342.337C230.464 342.312 230.459 342.283 230.463 342.254C230.468 342.226 230.481 342.2 230.502 342.18C230.522 342.16 230.549 342.148 230.578 342.144Z" fill="#263238"/>
<path opacity="0.1" d="M201.67 388.964C199.207 392.898 197.164 397.079 195.571 401.438C193.888 405.758 192.439 410.164 191.228 414.638C190.621 416.869 190.133 419.14 189.71 421.397C189.249 423.632 189.067 425.915 189.169 428.195C189.526 432.762 190.225 437.435 190.846 441.976C192.166 451.216 193.486 460.363 194.806 469.55L196.825 483.344L198.752 497.152C197.828 492.598 197.01 488.017 196.112 483.45L193.723 469.709C192.192 460.548 190.766 451.361 189.446 442.147C188.852 437.527 188.126 432.907 187.876 428.248C187.786 425.878 187.989 423.506 188.483 421.186C188.94 418.889 189.508 416.623 190.186 414.388C191.494 409.898 193.068 405.491 194.898 401.188C196.685 396.87 198.957 392.77 201.67 388.964Z" fill="black"/>
<path d="M179.916 558.36H141.544L117.48 380.002C120.424 377.903 171.6 371.197 171.6 371.197L173.699 418.717L173.936 423.997L175.982 470.461L176.392 479.569L176.51 482.288L176.59 484.084V485.206L176.933 493.126L177.5 505.85L177.896 514.721L178.319 524.489L178.385 526.007L178.49 528.211L179.665 554.915L179.916 558.36Z" fill="#DBDBDB"/>
<path d="M329.182 467.214L322.793 485.008L317.566 499.567L312.88 512.596L311.533 516.345L309.923 520.833L309.052 523.275L308.484 524.845L307.93 526.39L307.916 526.443L302.214 542.309L296.432 558.4H279.853L284.196 538.481L286.123 529.637L287.866 521.651L287.945 521.308L288.248 519.908L290.308 510.47L290.638 508.992L290.717 508.636L295.02 488.875L287.734 489.139H287.72L285.859 489.218L281.279 489.377L273.649 489.667L268.62 489.852L267.749 489.878L266.983 489.905L264.634 489.997L261.426 490.116L260.462 490.156L259.09 490.195L257.611 490.261L256.516 490.301L250.655 490.512L249.322 490.565L187.44 492.848L185.302 492.928L179.428 493.139L179.124 493.152L177.038 493.231L175.56 493.284L175.058 485.311L174.992 484.189L174.715 479.767L176.048 479.662L176.444 479.622L177.078 479.569L251.816 473.497L253.018 473.405L254.113 473.313L258.997 472.916L265.267 472.402L276.949 471.465L281.292 471.108L285.978 470.725H285.991L292.01 470.237L294.756 470.013L298.426 469.709L329.182 467.214Z" fill="#A6A6A6"/>
<path d="M539.88 461.749C555.852 477.365 558.532 501.6 555.166 522.72C555.086 523.195 554.334 523.076 554.334 522.614C554.334 517.796 554.479 513.018 554.466 508.266L554.228 507.619C550.057 504.596 546.229 501.178 543.853 496.478C541.213 491.198 540.144 485.324 538.111 479.86C537.913 479.332 538.481 479.49 538.837 479.754C548.552 486.908 551.641 494.617 554.426 504.913C554.368 499.53 553.802 494.165 552.737 488.888C550.638 479.107 546.493 469.432 539.471 462.185C539.207 461.894 539.616 461.472 539.88 461.749Z" fill="#263238"/>
<path d="M536.897 463.571C534.151 463.663 532.435 468.046 530.297 469.326C530.072 469.51 529.812 469.645 529.532 469.721C529.252 469.797 528.959 469.813 528.672 469.768C528.386 469.723 528.112 469.619 527.868 469.46C527.625 469.302 527.418 469.095 527.261 468.851C525.136 465.894 528.053 462.251 530.785 460.205C528.832 460.997 527.208 462.422 525.096 462.845C524.826 462.934 524.54 462.965 524.258 462.933C523.975 462.902 523.703 462.809 523.46 462.663C523.216 462.516 523.008 462.318 522.848 462.083C522.688 461.848 522.582 461.581 522.535 461.3C521.598 457.274 526.667 455.479 530.138 455.387C528.449 454.225 523.631 451.044 526.178 449.473C528.726 447.902 534.428 452.456 536.276 453.948C538.996 456.152 542.23 459.439 542.348 462.884C542.52 466.884 539.009 464.402 536.897 463.571Z" fill="#FEA000"/>
<path opacity="0.1" d="M536.897 463.571C534.151 463.663 532.435 468.046 530.297 469.326C530.072 469.51 529.812 469.645 529.532 469.721C529.252 469.797 528.959 469.813 528.672 469.768C528.386 469.723 528.112 469.619 527.868 469.46C527.625 469.302 527.418 469.095 527.261 468.851C525.136 465.894 528.053 462.251 530.785 460.205C528.832 460.997 527.208 462.422 525.096 462.845C524.826 462.934 524.54 462.965 524.258 462.933C523.975 462.902 523.703 462.809 523.46 462.663C523.216 462.516 523.008 462.318 522.848 462.083C522.688 461.848 522.582 461.581 522.535 461.3C521.598 457.274 526.667 455.479 530.138 455.387C528.449 454.225 523.631 451.044 526.178 449.473C528.726 447.902 534.428 452.456 536.276 453.948C538.996 456.152 542.23 459.439 542.348 462.884C542.52 466.884 539.009 464.402 536.897 463.571Z" fill="black"/>
<path d="M537.689 464.244C534.178 462.647 527.432 464.944 526.865 463.61C525.703 460.904 531.089 459.056 534.006 458.7C531.366 457.974 526.192 456.812 526.35 454.225C526.535 451.084 534.27 453.79 538.111 456.773C543.008 460.522 542.969 464.152 542.164 464.878C541.055 465.868 538.27 464.508 537.689 464.244Z" fill="#FEA000"/>
<path d="M576.246 460.192C559.68 475.2 556.103 499.25 558.664 520.542C558.664 521.017 559.469 520.912 559.495 520.463C559.68 515.645 559.706 510.866 559.904 506.114C559.997 505.903 560.076 505.705 560.182 505.481C564.458 502.616 568.405 499.343 570.966 494.749C573.817 489.614 575.098 483.74 577.342 478.355C577.553 477.84 576.985 477.972 576.616 478.223C566.636 485.008 563.257 492.584 560.076 502.775C560.321 497.396 561.072 492.053 562.32 486.816C564.788 477.127 569.303 467.61 576.589 460.64C576.919 460.363 576.523 459.928 576.246 460.192Z" fill="#263238"/>
<path d="M579.163 462.132C581.909 462.33 583.453 466.778 585.552 468.138C585.768 468.33 586.022 468.474 586.297 468.56C586.573 468.647 586.863 468.675 587.15 468.641C587.437 468.607 587.713 468.513 587.961 468.365C588.209 468.217 588.422 468.018 588.588 467.782C590.832 464.904 588.06 461.182 585.407 459.004C587.321 459.875 588.892 461.353 590.99 461.828C591.257 461.93 591.543 461.972 591.828 461.953C592.113 461.934 592.39 461.853 592.641 461.716C592.892 461.579 593.11 461.39 593.281 461.161C593.452 460.932 593.571 460.669 593.63 460.39C594.7 456.43 589.67 454.41 586.252 454.199C587.981 453.09 592.918 450.094 590.423 448.43C587.928 446.767 582.054 451.07 580.153 452.522C577.355 454.621 574.002 457.802 573.738 461.221C573.421 465.234 577.025 462.898 579.163 462.132Z" fill="#FEA000"/>
<path opacity="0.1" d="M579.163 462.132C581.909 462.33 583.453 466.778 585.552 468.138C585.768 468.33 586.022 468.474 586.297 468.56C586.573 468.647 586.863 468.675 587.15 468.641C587.437 468.607 587.713 468.513 587.961 468.365C588.209 468.217 588.422 468.018 588.588 467.782C590.832 464.904 588.06 461.182 585.407 459.004C587.321 459.875 588.892 461.353 590.99 461.828C591.257 461.93 591.543 461.972 591.828 461.953C592.113 461.934 592.39 461.853 592.641 461.716C592.892 461.579 593.11 461.39 593.281 461.161C593.452 460.932 593.571 460.669 593.63 460.39C594.7 456.43 589.67 454.41 586.252 454.199C587.981 453.09 592.918 450.094 590.423 448.43C587.928 446.767 582.054 451.07 580.153 452.522C577.355 454.621 574.002 457.802 573.738 461.221C573.421 465.234 577.025 462.898 579.163 462.132Z" fill="black"/>
<path d="M578.345 462.779C581.922 461.314 588.562 463.874 589.195 462.568C590.449 459.928 585.143 457.842 582.252 457.38C584.892 456.746 590.172 455.796 590.066 453.209C589.987 450.041 582.212 452.47 578.186 455.294C573.157 458.858 573.052 462.488 573.83 463.214C574.926 464.27 577.764 463.016 578.345 462.779Z" fill="#FEA000"/>
<path d="M559.324 499.831C558.211 507.869 556.495 515.811 554.189 523.591C554.149 523.737 554.056 523.862 553.927 523.942C553.798 524.021 553.644 524.048 553.496 524.018C553.348 523.988 553.218 523.902 553.13 523.779C553.043 523.655 553.006 523.503 553.027 523.354C554.123 516.041 556.103 508.834 557.185 501.56C558.393 494.145 558.836 486.626 558.505 479.12C557.819 466.805 554.466 453.697 546.427 444.061C546.256 443.837 546.625 443.507 546.81 443.718C562.901 462.488 560.34 485.496 560.327 487.555C562.61 479.794 564.96 470.884 573.527 462.977C573.896 462.634 574.187 462.792 574.121 463.373C572.576 477.787 568.577 485.311 560.221 493.007C559.984 495.304 559.68 497.64 559.324 499.831Z" fill="#263238"/>
<path d="M546.229 446.239C543.338 444.919 539.339 448.628 536.474 448.879C536.149 448.958 535.812 448.967 535.483 448.906C535.154 448.844 534.842 448.714 534.568 448.523C534.293 448.332 534.063 448.085 533.891 447.798C533.719 447.512 533.609 447.192 533.57 446.86C532.858 442.728 537.715 440.405 541.583 439.666C539.154 439.507 536.752 440.167 534.362 439.52C534.039 439.474 533.729 439.359 533.453 439.184C533.178 439.008 532.943 438.776 532.764 438.502C532.585 438.229 532.467 437.92 532.417 437.597C532.367 437.274 532.387 436.944 532.475 436.63C533.544 431.97 539.695 432.67 543.338 434.32C542.177 432.26 538.784 426.532 542.23 426.202C545.675 425.872 549.292 433.448 550.453 435.93C552.156 439.573 553.859 444.616 552.262 448.259C550.44 452.509 547.998 448.166 546.229 446.239Z" fill="#FEA000"/>
<path opacity="0.1" d="M546.229 446.239C543.338 444.919 539.339 448.628 536.474 448.879C536.149 448.958 535.812 448.967 535.483 448.906C535.154 448.844 534.842 448.714 534.568 448.523C534.293 448.332 534.063 448.085 533.891 447.798C533.719 447.512 533.609 447.192 533.57 446.86C532.858 442.728 537.715 440.405 541.583 439.666C539.154 439.507 536.752 440.167 534.362 439.52C534.039 439.474 533.729 439.359 533.453 439.184C533.178 439.008 532.943 438.776 532.764 438.502C532.585 438.229 532.467 437.92 532.417 437.597C532.367 437.274 532.387 436.944 532.475 436.63C533.544 431.97 539.695 432.67 543.338 434.32C542.177 432.26 538.784 426.532 542.23 426.202C545.675 425.872 549.292 433.448 550.453 435.93C552.156 439.573 553.859 444.616 552.262 448.259C550.44 452.509 547.998 448.166 546.229 446.239Z" fill="black"/>
<path d="M546.718 447.335C543.88 443.916 535.722 442.9 535.801 441.236C535.946 437.844 542.48 438.596 545.675 439.718C543.259 437.62 538.52 433.844 539.986 431.231C541.768 428.063 548.368 434.742 550.902 439.784C554.096 446.147 552.222 449.896 551.034 450.239C549.384 450.714 547.18 447.902 546.718 447.335Z" fill="#FEA000"/>
<path d="M569.91 504.161L577.012 558.36H533.821C534.706 553.555 542.744 504.055 542.744 504.055L569.91 504.161Z" fill="#FEA000"/>
<path d="M62.6208 558.4L129.466 558.07L196.31 557.964L330 557.74L463.69 557.951L530.534 558.07L597.379 558.4L530.534 558.716L463.69 558.835L330 559.06L196.31 558.835L129.466 558.716L62.6208 558.4Z" fill="#263238"/>
<path d="M426.386 585.79H464.904V527.63H426.386V585.79Z" fill="#FEA000"/>
<path d="M434.874 521.888H456.39V510.866H434.874V521.888Z" fill="#A6A6A6"/>
<path d="M453.539 521.888H437.738V527.63H453.539V521.888Z" fill="#FEA000"/>
<path d="M430.597 585.763C429.859 583.902 428.674 582.252 427.148 580.956C425.622 579.66 423.801 578.759 421.846 578.332C421.12 577.777 421.555 577.012 421.146 576.84C419.406 576.481 417.614 576.459 415.866 576.774C415.351 577.051 415.589 578.094 415.074 578.213C407.906 579.889 403.96 584.588 402.758 585.341C401.293 586.265 393.439 586.067 387.948 585.09C382.457 584.113 375.936 580.021 373.903 577.447C373.903 577.447 327.862 578.279 296.34 588.152V589.472L379.936 587.07C386.157 589.324 392.736 590.434 399.353 590.344C399.76 590.314 400.167 590.397 400.53 590.584C400.893 590.77 401.198 591.052 401.412 591.4C402.244 592.363 406.032 600.719 417.133 600.362C428.234 600.006 433.184 591.175 430.597 585.763ZM408.949 594.277C405.636 590.489 406.771 585.539 411.734 582.859C416.698 580.18 422.03 580.642 425.093 583.968C429.277 588.496 426.241 593.34 422.888 595.426C419.192 597.722 412.276 598.066 408.949 594.277Z" fill="#37474F"/>
<path d="M379.896 582.014L370.049 587.294L340.705 588.139L358.261 578.16C367.699 577.526 373.916 577.408 373.916 577.408C375.626 579.28 377.65 580.839 379.896 582.014Z" fill="#263238"/>
<path d="M298.148 588.258C301.118 587.4 304.141 586.687 307.177 585.988C310.213 585.288 313.262 584.668 316.325 584.1C322.45 582.938 328.627 581.975 334.805 581.196C340.982 580.417 347.239 579.876 353.483 579.467C355.04 579.388 356.598 579.256 358.156 579.203L362.842 579.031C364.412 578.965 365.97 579.031 367.528 578.965H372.214C365.97 579.19 359.74 579.414 353.509 579.916C347.279 580.417 341.075 580.985 334.884 581.777C328.693 582.569 322.542 583.466 316.404 584.536C310.266 585.605 304.181 586.793 298.148 588.258Z" fill="#455A64"/>
<path d="M386.839 575.81C391.948 573.738 399.564 571.93 401.214 572.51C402.864 573.091 410.256 578.886 418.598 576.47C425.264 574.596 428.234 570.148 429.158 566.148C430.082 562.148 432.247 562.439 434.914 561.343C438.291 559.851 441.077 557.278 442.834 554.03C444.312 550.796 440.906 548.988 438.953 552.71C436.999 556.433 434.491 557.845 430.531 558.69C426.571 559.535 422.334 552.578 411.655 554.849C400.976 557.119 399.049 565.712 398.455 566.821C397.861 567.93 397.492 568.141 396.713 568.273C390.254 569.545 384.087 572.002 378.523 575.52L296.446 590.344L296.789 591.664C329.894 594.818 374.986 586.159 374.986 586.159C376.345 583.216 381.731 577.883 386.839 575.81ZM405.121 568.313C403.405 563.798 406.309 559.39 411.985 558.188C417.661 556.987 422.545 558.875 424.169 562.888C426.426 568.352 421.753 572.128 417.82 573.21C413.49 574.398 406.85 572.88 405.121 568.313Z" fill="#455A64"/>
<path d="M365.336 582.12C364.9 581.696 364.331 581.435 363.725 581.382C363.119 581.329 362.513 581.487 362.01 581.83C361.77 581.969 361.565 582.16 361.41 582.39C361.255 582.62 361.154 582.882 361.114 583.156C361.075 583.43 361.098 583.71 361.183 583.974C361.267 584.238 361.41 584.48 361.601 584.681C362.035 585.107 362.604 585.37 363.21 585.426C363.816 585.481 364.423 585.325 364.927 584.984C365.165 584.842 365.369 584.649 365.522 584.418C365.676 584.187 365.776 583.924 365.815 583.65C365.854 583.375 365.832 583.095 365.749 582.831C365.666 582.566 365.525 582.323 365.336 582.12Z" fill="#C7C7C7"/>
<path d="M364.782 582.503C364.476 582.199 364.074 582.012 363.645 581.973C363.216 581.935 362.787 582.047 362.432 582.292C362.265 582.393 362.123 582.529 362.015 582.692C361.908 582.855 361.837 583.04 361.81 583.233C361.782 583.426 361.797 583.623 361.855 583.809C361.912 583.996 362.01 584.167 362.142 584.311C362.449 584.612 362.851 584.798 363.279 584.837C363.707 584.875 364.136 584.764 364.492 584.522C364.658 584.421 364.801 584.284 364.909 584.122C365.016 583.959 365.086 583.774 365.114 583.581C365.142 583.388 365.127 583.191 365.069 583.005C365.012 582.818 364.914 582.647 364.782 582.503Z" fill="#EBEBEB"/>
<path d="M297.594 590.898C300.78 590.968 303.961 590.968 307.138 590.898C310.314 590.828 313.496 590.775 316.681 590.74C323.044 590.555 329.406 590.278 335.755 589.816C338.923 589.631 342.091 589.34 345.272 589.09C348.454 588.839 351.608 588.496 354.763 588.113L359.502 587.572L364.228 586.925L366.59 586.621L368.94 586.252L373.652 585.539C367.422 586.714 361.139 587.783 354.816 588.535L352.453 588.839L350.077 589.103L345.325 589.591C342.144 589.855 338.976 590.172 335.795 590.37C329.432 590.779 323.057 591.07 316.694 591.162C310.332 591.254 303.943 591.241 297.594 590.898Z" fill="#37474F"/>
<path d="M428.472 565.29C428.208 567.679 427.238 569.935 425.687 571.771C423.961 573.749 421.708 575.195 419.192 575.942C416.561 576.744 413.764 576.83 411.088 576.193C408.521 575.575 406.067 574.56 403.814 573.184C403.273 572.88 402.706 572.497 402.191 572.26C401.607 572.05 400.989 571.952 400.369 571.969C399.038 571.997 397.712 572.152 396.409 572.431C393.818 572.996 391.266 573.724 388.766 574.609C386.309 575.455 383.974 576.622 381.823 578.081C379.692 579.414 377.803 581.102 376.24 583.07C376.931 582.045 377.742 581.106 378.655 580.272C381.541 577.63 384.912 575.573 388.582 574.213C391.089 573.274 393.661 572.515 396.277 571.943C397.614 571.649 398.975 571.481 400.343 571.441C401.057 571.42 401.768 571.532 402.442 571.771C403.102 572.075 403.577 572.418 404.144 572.735C406.328 574.09 408.711 575.092 411.206 575.705C413.771 576.33 416.455 576.28 418.994 575.56C421.46 574.872 423.68 573.499 425.396 571.6C427.005 569.835 428.073 567.645 428.472 565.29Z" fill="#263238"/>
<path d="M268.66 565.871H246.444V591.901H268.66V565.871Z" fill="#263238"/>
<path d="M269.94 575.045H245.098V577.645H269.94V575.045Z" fill="#263238"/>
<path d="M269.94 578.226H245.098V580.826H269.94V578.226Z" fill="#263238"/>
<path d="M269.94 581.394H245.098V583.994H269.94V581.394Z" fill="#263238"/>
<path d="M267.63 565.871H247.46C247.46 565.871 240.623 547.919 241.89 546.282C243.157 544.645 249.176 542.441 257.545 542.441C265.373 542.441 271.96 544.632 273.227 546.282C274.494 547.932 267.63 565.871 267.63 565.871Z" fill="#FEA000"/>
<path opacity="0.5" d="M267.63 565.871H247.46C247.46 565.871 240.623 547.919 241.89 546.282C243.157 544.645 249.176 542.441 257.545 542.441C265.373 542.441 271.96 544.632 273.227 546.282C274.494 547.932 267.63 565.871 267.63 565.871Z" fill="white"/>
<path d="M242.642 546.652C242.748 546.955 243.131 547.021 243.408 547.14C243.701 547.244 244.001 547.327 244.306 547.391C244.926 547.549 245.546 547.655 246.167 547.76C247.416 547.954 248.67 548.112 249.929 548.236C252.441 548.501 254.966 548.629 257.492 548.618C260.022 548.636 262.551 548.522 265.069 548.275C266.327 548.174 267.578 548.006 268.818 547.774C270.072 547.638 271.288 547.257 272.395 546.652C271.352 547.398 270.158 547.907 268.897 548.143C267.656 548.447 266.402 548.671 265.135 548.856C260.071 549.586 254.927 549.586 249.863 548.856C248.543 548.671 247.342 548.447 246.101 548.156C245.48 547.998 244.86 547.84 244.253 547.628C243.949 547.523 243.646 547.417 243.355 547.285C243.065 547.153 242.722 546.982 242.642 546.652Z" fill="#FEA000"/>
<path d="M248.794 565.897C247.817 563.666 246.998 561.37 246.154 559.086C245.332 556.791 244.627 554.456 244.042 552.09L246.523 558.954C247.315 561.264 248.16 563.561 248.794 565.897Z" fill="#FEA000"/>
<path d="M246.444 556.552C247.051 558.056 247.526 559.614 248.002 561.158C248.477 562.703 248.899 564.274 249.203 565.871C248.596 564.379 248.12 562.822 247.645 561.264C247.17 559.706 246.748 558.149 246.444 556.552Z" fill="#FEA000"/>
<path d="M264.779 565.871C265.544 563.231 266.402 560.736 267.234 558.175L268.554 554.347C268.963 553.027 269.399 551.786 269.768 550.493C269.234 553.139 268.519 555.745 267.63 558.294C266.719 560.842 265.835 563.389 264.779 565.871Z" fill="#FEA000"/>
<path d="M260.911 565.871C261.466 561.911 262.297 558.043 263.129 554.162C262.973 556.145 262.691 558.116 262.284 560.063C261.888 562.016 261.479 563.957 260.911 565.871Z" fill="#FEA000"/>
<path d="M252.12 565.871C251.566 563.957 251.156 562.016 250.8 560.063C250.406 558.114 250.124 556.144 249.955 554.162C250.8 558.043 251.618 561.924 252.12 565.871Z" fill="#FEA000"/>
<path d="M260.04 556.261C260.132 557.872 260.04 559.482 260.04 561.092C260.04 562.703 259.868 564.3 259.644 565.897C259.552 564.287 259.644 562.676 259.644 561.079C259.644 559.482 259.829 557.858 260.04 556.261Z" fill="#FEA000"/>
<path d="M263.67 558.466C263.475 559.755 263.192 561.029 262.825 562.28C262.488 563.542 261.996 564.757 261.36 565.897C261.584 565.29 261.743 564.656 261.928 564.036L262.456 562.175C262.838 561 263.195 559.68 263.67 558.466Z" fill="#FEA000"/>
<path d="M251.051 551.034C251.13 552.275 251.275 553.516 251.407 554.756L251.83 558.466C252.107 560.934 252.437 563.416 252.648 565.897C252.12 563.455 251.777 560.987 251.46 558.505C251.133 556.029 250.996 553.531 251.051 551.034Z" fill="#FEA000"/>
</svg>
