<svg width="380" height="357" viewBox="0 0 380 357" fill="none" xmlns="http://www.w3.org/2000/svg">
<path d="M14.2762 184.897C-0.150746 212.784 2.14529 247.624 16.6837 275.427C31.2222 303.231 56.869 324.248 85.5183 337.048C114.168 349.848 145.754 354.933 177.099 356.253C195.691 357.025 214.375 356.513 232.734 353.53C253.752 350.099 274.751 343.146 291.139 329.547C302.563 320.065 311.292 307.758 318.952 295.05C336.074 266.633 348.447 235.651 360.782 204.826C366.843 189.637 372.941 174.346 376.38 158.348C382.887 127.933 379.318 95.1374 364.705 67.6686C350.092 40.1999 324.148 18.5688 294.076 10.7233C274.156 5.53627 252.98 6.3357 232.92 10.9742C219.277 14.1265 206.091 19.0058 193.683 25.4941C163.444 41.2968 139.628 66.5624 113.647 87.9704C102.232 97.3869 93.3731 109.852 81.7442 119.381C69.9759 129.039 57.5104 137.832 45.9187 147.704C33.4346 158.311 21.815 170.265 14.2762 184.897Z" fill="#FEA000"/>
<path opacity="0.7" d="M14.2762 184.897C-0.150746 212.784 2.14529 247.624 16.6837 275.427C31.2222 303.231 56.869 324.248 85.5183 337.048C114.168 349.848 145.754 354.933 177.099 356.253C195.691 357.025 214.375 356.513 232.734 353.53C253.752 350.099 274.751 343.146 291.139 329.547C302.563 320.065 311.292 307.758 318.952 295.05C336.074 266.633 348.447 235.651 360.782 204.826C366.843 189.637 372.941 174.346 376.38 158.348C382.887 127.933 379.318 95.1374 364.705 67.6686C350.092 40.1999 324.148 18.5688 294.076 10.7233C274.156 5.53627 252.98 6.3357 232.92 10.9742C219.277 14.1265 206.091 19.0058 193.683 25.4941C163.444 41.2968 139.628 66.5624 113.647 87.9704C102.232 97.3869 93.3731 109.852 81.7442 119.381C69.9759 129.039 57.5104 137.832 45.9187 147.704C33.4346 158.311 21.815 170.265 14.2762 184.897Z" fill="white"/>
<path d="M285.478 129.662H376.771" stroke="#263238" stroke-linecap="round" stroke-linejoin="round"/>
<path d="M210.461 1V74.9751" stroke="#263238" stroke-linecap="round" stroke-linejoin="round"/>
<path d="M80.2942 129.662H25.459" stroke="#263238" stroke-linecap="round" stroke-linejoin="round"/>
<path d="M288.387 91.0101L323.423 55.9747" stroke="#263238" stroke-linecap="round" stroke-linejoin="round"/>
<path d="M309.098 56.8485L326.611 39.3261" stroke="#263238" stroke-linecap="round" stroke-linejoin="round"/>
<path d="M0.5 251.035L35.5354 215.991" stroke="#263238" stroke-linecap="round" stroke-linejoin="round"/>
<path d="M21.2014 216.864L38.7238 199.342" stroke="#263238" stroke-linecap="round" stroke-linejoin="round"/>
<path d="M291.576 74.3615L302.731 63.2067" stroke="#263238" stroke-linecap="round" stroke-linejoin="round"/>
<path d="M240.357 39.3075L242.579 46.4838C242.706 46.9434 242.93 47.3704 243.236 47.736C243.543 48.1016 243.924 48.3973 244.354 48.6032L250.387 51.2804L244.391 53.9296C243.962 54.1365 243.581 54.4325 243.275 54.798C242.969 55.1634 242.744 55.5899 242.616 56.0491L240.394 63.2253L238.172 56.0491C238.046 55.5905 237.822 55.1643 237.518 54.7989C237.213 54.4334 236.834 54.1371 236.406 53.9296L230.364 51.2804L236.369 48.6218C236.798 48.4159 237.178 48.12 237.483 47.7543C237.788 47.3886 238.01 46.9617 238.135 46.5024L240.357 39.3075Z" fill="white"/>
<path d="M268.82 70.5968L270.968 77.3362C271.094 77.7706 271.312 78.1729 271.607 78.5161C271.902 78.8592 272.267 79.1352 272.678 79.3255L278.488 81.8167L272.697 84.3172C272.285 84.5065 271.92 84.7822 271.625 85.1254C271.329 85.4687 271.112 85.8715 270.986 86.3065L268.839 93.0459L266.692 86.3065C266.565 85.8709 266.345 85.4678 266.048 85.1245C265.752 84.7813 265.385 84.5059 264.972 84.3172L259.171 81.8167L264.972 79.3255C265.384 79.1352 265.75 78.8594 266.046 78.5164C266.343 78.1733 266.563 77.771 266.692 77.3362L268.82 70.5968Z" fill="white"/>
<path opacity="0.7" d="M281.908 41.8917L282.615 44.1134C282.658 44.257 282.731 44.39 282.828 44.5037C282.926 44.6174 283.046 44.7093 283.182 44.7734L285.097 45.5914L283.182 46.4187C283.046 46.4828 282.926 46.5747 282.828 46.6884C282.731 46.8021 282.658 46.9351 282.615 47.0787L281.908 49.3004L281.202 47.0787C281.161 46.9343 281.089 46.8006 280.991 46.6866C280.893 46.5727 280.771 46.4813 280.635 46.4187L278.72 45.5914L280.635 44.7734C280.771 44.7108 280.893 44.6194 280.991 44.5055C281.089 44.3915 281.161 44.2578 281.202 44.1134L281.908 41.8917Z" fill="white"/>
<path d="M334.206 142.118L337.84 153.858C338.048 154.61 338.414 155.308 338.915 155.906C339.415 156.504 340.038 156.988 340.741 157.326L350.557 161.676L340.741 166.017C340.037 166.356 339.415 166.842 338.914 167.441C338.414 168.041 338.048 168.741 337.84 169.494L334.206 181.234L330.571 169.494C330.364 168.741 329.998 168.041 329.497 167.441C328.997 166.842 328.374 166.356 327.671 166.017L317.855 161.676L327.671 157.326C328.374 156.988 328.997 156.504 329.497 155.906C329.997 155.308 330.364 154.61 330.571 153.858L334.206 142.118Z" fill="white"/>
<path d="M291.576 219.644L293.723 226.383C293.85 226.819 294.07 227.222 294.366 227.565C294.663 227.908 295.03 228.184 295.443 228.372L301.243 230.873L295.443 233.364C295.031 233.554 294.665 233.83 294.368 234.173C294.072 234.516 293.852 234.919 293.723 235.354L291.576 242.093L289.429 235.335C289.3 234.901 289.082 234.5 288.787 234.157C288.492 233.814 288.128 233.537 287.718 233.346L281.908 230.854L287.718 228.354C288.128 228.163 288.493 227.887 288.788 227.544C289.083 227.201 289.302 226.799 289.429 226.365L291.576 219.644Z" fill="white"/>
<path d="M327.931 207.494L328.638 209.716C328.681 209.86 328.753 209.993 328.851 210.106C328.949 210.22 329.069 210.312 329.205 210.376L331.12 211.203L329.205 212.021C329.069 212.086 328.949 212.177 328.851 212.291C328.753 212.405 328.681 212.538 328.638 212.681L327.931 214.903L327.225 212.681C327.182 212.538 327.109 212.405 327.012 212.291C326.914 212.177 326.793 212.086 326.658 212.021L324.752 211.166L326.667 210.339C326.803 210.275 326.923 210.183 327.021 210.069C327.119 209.955 327.191 209.822 327.234 209.679L327.931 207.494Z" fill="white"/>
<path d="M186.247 49.3004L187.864 54.9336C187.952 55.2854 188.112 55.6151 188.335 55.9016C188.557 56.188 188.837 56.4251 189.156 56.5975L193.516 58.689L189.156 60.7713C188.837 60.9437 188.557 61.1807 188.335 61.4672C188.112 61.7537 187.952 62.0833 187.864 62.4352L186.247 68.0684L184.638 62.4352C184.55 62.0833 184.39 61.7537 184.167 61.4672C183.945 61.1807 183.665 60.9437 183.346 60.7713L178.987 58.7169L183.346 56.6254C183.665 56.4529 183.945 56.2159 184.167 55.9295C184.39 55.643 184.55 55.3133 184.638 54.9615L186.247 49.3004Z" fill="white"/>
<path d="M125.35 239.983C125.35 239.983 109.297 220.285 108.162 213.76L95.7806 220.267L50.6501 219.913C48.378 216.067 46.3024 212.108 44.4313 208.052C42.6465 203.73 41.9122 196.219 52.0352 194.183C52.0352 194.183 57.9937 183.53 60.141 174.997C62.2883 166.463 58.9883 156.954 62.1582 150.623C65.328 144.293 66.6573 142.61 71.9837 139.469C77.3101 136.327 88.9204 128.314 94.1725 125.004C99.6137 121.534 105.507 118.828 111.686 116.964C117.449 115.356 162.096 90.9357 162.096 90.9357L164.104 94.2543L163.76 90.9357L170.183 95.3047C170.183 95.3047 174.952 96.132 183.969 92.9343C192.986 89.7366 211.103 79.3998 223.234 84.9214C235.365 90.4431 253.566 109.694 259.087 115.421C264.609 121.147 276.303 132.906 279.203 141.579C282.103 150.252 288.201 155.439 291.287 158.859C294.374 162.28 309.107 173.946 299.133 188.829C289.159 203.711 251.911 192.249 251.911 192.249C251.911 192.249 253.603 183.446 257.154 177.72C255.376 173.828 253.122 170.171 250.442 166.835C245.952 161.258 230.438 143.707 221.533 139.524C212.627 135.341 177.22 218.008 177.22 218.008L170.007 215.359L168.78 226.513C168.78 226.513 131.885 235.391 125.35 239.983Z" fill="#FEA000"/>
<path opacity="0.2" d="M213.325 105.679C224.21 104.359 235.179 109.397 243.071 116.973C250.963 124.549 256.15 134.57 260.259 144.739C263.188 152.007 265.635 159.459 267.584 167.049C274.751 165.05 283.34 164.492 290.544 166.314C285.58 167.7 280.505 168.062 274.825 170.312C280.319 170.358 285.905 171.158 290.814 173.63C295.722 176.103 299.868 180.435 301.206 185.761C301.327 186.272 301.15 187.072 300.648 186.914L293.528 196.925L251.92 195.261C251.92 195.261 250.675 187.825 257.163 177.841C254.055 171.436 249.996 165.538 245.125 160.347C236.666 151.097 223.225 141.179 223.225 141.179L213.325 105.679Z" fill="black"/>
<path opacity="0.2" d="M46.8855 213.76C46.8855 213.76 39.449 199.639 57.4547 195.261C57.4547 195.261 62.6975 190.976 64.3335 185.036C65.9696 179.096 66.1927 146.45 90.3614 142.127C114.53 137.805 126.122 132.655 132.015 116.564C137.909 100.473 172.405 113.561 172.405 113.561L187.557 191.72L168.78 226.56L125.35 239.983C125.35 239.983 108.618 218.519 104.324 204.882C100.029 191.245 68.6002 214.782 68.6002 214.782L52.8719 221.522L46.8855 213.76Z" fill="black"/>
<path d="M238.934 222.321L227.649 221.81L224.359 214.122L222.825 215.675L220.213 204.994C220.213 204.994 235.263 201.071 246.139 193.281C259.106 185.845 282.094 175.415 297.99 184.683C297.99 184.683 297.553 191.134 297.06 195.15C296.568 199.165 295.248 205.375 283.712 211.566L244.056 220.22" fill="white"/>
<path d="M142.743 64.7498L127.73 52.7677L110.803 67.9196L90.3521 79.5485L95.4926 102.992C95.4926 102.992 106.703 116.824 111.686 122.29C116.668 127.756 115.999 128.109 122.218 130.656C128.436 133.203 143.17 134.198 143.17 134.198C145.772 133.318 148.266 132.149 150.607 130.712C154.474 128.342 155.571 120.747 155.571 120.747L161.38 115.541L162.18 106.199C163.783 102.034 164.385 97.5511 163.937 93.1109L155.431 81.6308C155.431 81.6308 158.22 81.8446 159.066 79.5392C159.912 77.2339 160.479 71.545 160.479 71.545C160.479 71.545 160.572 68.7563 156.463 63.1045C152.354 57.4527 152.001 55.4448 146.712 56.8299C141.423 58.2149 142.743 64.7498 142.743 64.7498Z" fill="white"/>
<path d="M168.78 209.818C167.683 207.652 156.184 192.621 152.048 189.145C152.048 189.145 129.468 179.7 124.486 181.067L109.901 185.491C109.901 185.491 92.6668 190.576 88.5209 192.742C84.3751 194.908 77.4777 196.59 69.6786 198.422C61.8795 200.253 52.528 201.443 51.1523 207.931C49.7765 214.42 48.847 224.831 50.8641 231.496C50.8641 231.496 50.7805 238.142 51.9238 239.946C53.0672 241.749 62.1491 242.632 70.3107 238.598C78.4723 234.563 88.7162 228.001 95.7716 220.313L114.567 211.705L126.503 221.484L133.298 222.86L139.34 218.789L143.486 221.484H147.074L148.06 216.372L139.34 205.338L157.3 216.372L160.897 213.76L159.735 207.067L166.242 213.76C166.242 213.76 169.877 211.993 168.78 209.818ZM146.87 197.418L151.601 198.766L156.352 204.631L146.87 197.418Z" fill="white"/>
<path d="M137.035 100.455C138.197 101.942 138.541 103.634 137.788 104.173C137.035 104.712 135.492 104.024 134.321 102.527C133.149 101.031 132.815 99.3483 133.568 98.8092C134.321 98.27 135.864 98.9579 137.035 100.455Z" fill="#263238"/>
<path d="M117.542 111.479C118.704 112.976 119.048 114.658 118.295 115.244C117.542 115.83 115.999 115.086 114.827 113.589C113.656 112.093 113.321 110.41 114.074 109.825C114.827 109.239 116.37 109.983 117.542 111.479Z" fill="#263238"/>
<path d="M142.743 118.944C142.743 118.944 147.391 115.858 145.531 108.161" stroke="#263238" stroke-linecap="round" stroke-linejoin="round"/>
<path d="M127.033 95.9833C127.988 94.1774 129.42 92.6683 131.174 91.6209C132.928 90.5734 134.936 90.0277 136.979 90.0434" stroke="#263238" stroke-width="2" stroke-linecap="round" stroke-linejoin="round"/>
<path d="M115.199 104.108C113.542 104.74 112.047 105.737 110.826 107.024C109.605 108.311 108.688 109.856 108.144 111.544" stroke="#263238" stroke-width="2" stroke-linecap="round" stroke-linejoin="round"/>
<path d="M119.317 107.138C123.754 110.147 127.14 114.466 129.003 119.492C131.178 120.18 133.454 120.494 135.733 120.422L136.235 114.612" stroke="#263238" stroke-linecap="round" stroke-linejoin="round"/>
<path d="M86.2527 81.8167C86.2527 81.8167 86.2527 91.1124 91.0121 97.1917C95.4182 102.862 104.509 113.255 105.829 114.77C105.936 114.887 106.036 115.012 106.127 115.142C107.187 116.601 114.075 125.953 117.97 128.871C121.455 131.484 137.091 133.519 142.501 134.123C143.691 134.26 144.894 134.009 145.931 133.408L150.579 130.675C151.696 130.024 152.548 129 152.986 127.784L157.82 114.491C158.04 113.896 158.153 113.266 158.155 112.632V104.554C158.156 103.883 158.033 103.218 157.792 102.593L151.982 87.329" stroke="#263238" stroke-linecap="round" stroke-linejoin="round"/>
<path d="M155.571 81.8167C155.571 81.8167 157.346 85.9811 163.937 93.1295" stroke="#263238" stroke-linecap="round" stroke-linejoin="round"/>
<path d="M222.369 204.455C222.369 204.455 234.881 200.104 243.684 194.666C252.487 189.228 281.23 175.257 298.529 184.311L298.222 185.956C297.705 188.87 297.484 191.829 297.562 194.787C297.664 200.076 295.275 204.631 284.204 211.203C270.372 212.932 239.501 221.996 239.501 221.996" stroke="#263238" stroke-linecap="round" stroke-linejoin="round"/>
<path d="M114.884 212.384C110.728 213.146 104.472 218.175 102.437 221.884C100.401 225.593 99.2017 229.711 97.1567 233.411C94.6912 237.838 91.0871 241.525 86.7176 244.091C81.0286 247.419 74.1127 248.804 69.3626 253.387C66.9529 255.821 65.1338 258.775 64.0454 262.023C61.2362 269.786 61.4778 278.326 64.7216 285.918C67.9654 293.51 73.9696 299.588 81.5213 302.924" stroke="#263238" stroke-width="2" stroke-linecap="round" stroke-linejoin="round"/>
<path d="M117.514 183.604C117.514 183.604 94.944 188.671 86.2526 193.96C77.5611 199.249 54.0337 197.399 50.8546 208.759C47.6755 220.118 50.8546 231.496 50.8546 231.496C50.8546 231.496 50.0645 238.124 51.9143 239.983C53.7641 241.842 72.8017 244.751 94.7395 220.964C94.7395 220.964 107.698 213.09 114.307 212.533" stroke="#263238" stroke-linecap="round" stroke-linejoin="round"/>
<path d="M114.307 186.282C114.307 186.282 120.359 179.691 126.959 181.336C133.558 182.982 148.952 186.914 152.057 189.145C155.162 191.376 168.389 207.178 168.789 209.818C169.189 212.458 166.27 213.76 166.27 213.76L151.601 198.766L142.752 195.977" stroke="#263238" stroke-linecap="round" stroke-linejoin="round"/>
<path d="M145.643 196.879L159.726 207.104L160.888 213.788L157.29 216.4C157.29 216.4 142.677 206.658 137.174 204.315" stroke="#263238" stroke-linecap="round" stroke-linejoin="round"/>
<path d="M137.918 204.631L148.05 216.372L147.065 221.484H143.477L126.493 210.441" stroke="#263238" stroke-linecap="round" stroke-linejoin="round"/>
<path d="M101.656 206.621C102.706 209.614 108.07 210.041 112.383 210.832C116.696 211.622 126.512 221.484 126.512 221.484L133.317 222.86L139.35 218.789" stroke="#263238" stroke-linecap="round" stroke-linejoin="round"/>
<path d="M111.667 185.027C111.667 185.027 106.778 163.321 96.98 151.321" stroke="#263238" stroke-linecap="round" stroke-linejoin="round"/>
<path d="M114.307 183.828C114.307 183.828 119.271 172.887 111.667 157.353" stroke="#263238" stroke-linecap="round" stroke-linejoin="round"/>
<path d="M108.162 117.837C98.0114 120.44 84.9231 132.878 70.05 140.575C59.0532 146.254 61.3306 160.142 60.7543 170.59C60.178 181.039 52.0256 194.229 52.0256 194.229C52.0256 194.229 44.6634 195.865 43.5759 201.777C42.4883 207.69 49.4786 218.222 49.4786 218.222" stroke="#263238" stroke-linecap="round" stroke-linejoin="round"/>
<path d="M108.163 214.745C108.163 214.745 117.784 234.656 125.369 239.155" stroke="#263238" stroke-linecap="round" stroke-linejoin="round"/>
<path d="M83.4824 195.261C83.4824 195.261 72.2625 190.158 62.1023 192.194" stroke="#263238" stroke-linecap="round" stroke-linejoin="round"/>
<path d="M86.2525 193.96C83.2407 190.539 72.8389 187.927 72.8389 187.927" stroke="#263238" stroke-linecap="round" stroke-linejoin="round"/>
<path d="M249.699 106.869C249.699 106.869 273.868 126.966 280.374 144.535C285.478 158.348 313.616 171.26 298.083 190.251" stroke="#263238" stroke-linecap="round" stroke-linejoin="round"/>
<path d="M251.911 190.251C252.482 186.337 253.863 182.586 255.964 179.235C259.589 173.072 278.199 171.799 288.415 175.043" stroke="#263238" stroke-linecap="round" stroke-linejoin="round"/>
<path d="M154.046 142.834C154.046 143.348 153.894 143.852 153.608 144.28C153.322 144.708 152.915 145.041 152.439 145.238C151.964 145.435 151.44 145.487 150.936 145.386C150.431 145.286 149.967 145.038 149.603 144.674C149.239 144.31 148.991 143.846 148.891 143.341C148.79 142.836 148.842 142.313 149.039 141.838C149.236 141.362 149.569 140.955 149.997 140.669C150.425 140.383 150.929 140.231 151.443 140.231C152.134 140.231 152.796 140.505 153.284 140.993C153.772 141.481 154.046 142.143 154.046 142.834Z" fill="#263238"/>
<path d="M156.649 158.878C156.649 159.393 156.496 159.896 156.21 160.324C155.924 160.752 155.518 161.086 155.042 161.283C154.567 161.48 154.043 161.531 153.538 161.431C153.033 161.33 152.57 161.082 152.206 160.718C151.842 160.354 151.594 159.891 151.493 159.386C151.393 158.881 151.444 158.357 151.641 157.882C151.838 157.406 152.172 157 152.6 156.714C153.028 156.428 153.531 156.275 154.046 156.275C154.736 156.275 155.398 156.549 155.887 157.037C156.375 157.526 156.649 158.188 156.649 158.878Z" fill="#263238"/>
<path d="M143.616 74.1291L143.152 62.807C143.106 61.8436 143.347 60.8883 143.843 60.0613C144.339 59.2343 145.069 58.5725 145.94 58.1592L147.8 57.2947C148.885 56.7855 150.119 56.6937 151.268 57.0365C152.417 57.3794 153.399 58.1331 154.028 59.1538L159.763 68.5052C160.316 69.4139 160.56 70.4768 160.46 71.5356L159.893 77.2339C159.779 78.3744 159.268 79.4386 158.449 80.2406C157.63 81.0425 156.555 81.5313 155.413 81.6215L153.303 81.7888" stroke="#263238" stroke-linecap="round" stroke-linejoin="round"/>
<path d="M162.18 104.108C165.108 99.2554 163.741 91.0101 163.741 91.0101L171.048 95.9833C171.048 95.9833 171.782 98.2329 171.048 103.141" stroke="#263238" stroke-linecap="round" stroke-linejoin="round"/>
<path d="M171.634 95.8997C179.26 94.6501 186.712 92.5001 193.832 89.4949C204.745 84.8471 213.055 79.7159 224.74 85.7767C231.052 89.0394 236.48 93.7617 242.55 97.4056" stroke="#263238" stroke-linecap="round" stroke-linejoin="round"/>
<path d="M113.786 87.8682C113.786 87.8682 90.9748 86.2507 83.1757 78.7305C75.3766 71.2103 75.7949 49.2167 75.7949 49.2167C76.3945 51.8055 77.1552 54.3544 78.0724 56.8485C78.2769 57.3876 78.5 57.9175 78.7231 58.4101C80.3963 62.0262 80.3963 49.2167 80.3963 49.2167L81.7907 54.2271C81.7907 54.2271 90.1568 39.4748 95.9852 35.5706C101.814 31.6665 126.614 32.5124 138.597 37.2439L150.291 56.8578C150.291 56.8578 144.62 56.8578 143.579 60.6318C143.244 65.0937 143.579 72.0748 143.579 72.0748C137.013 69.4408 131.471 64.7596 127.776 58.7262C127.776 58.7262 122.562 77.3083 113.786 87.8682Z" fill="#263238"/>
<path d="M90.5843 81.8167C90.5843 81.8167 98.9505 94.3287 96.6637 104.126C96.6637 104.126 90.3334 94.9236 88.5765 92.9715C85.481 89.5507 83.594 74.9843 83.594 74.9843L90.5843 81.8167Z" fill="#263238"/>
<path d="M259.784 175.527C262.694 172.552 266.654 170.879 270.502 169.317C273.877 167.932 277.325 166.528 280.969 166.268" stroke="#263238" stroke-linecap="round" stroke-linejoin="round"/>
<path d="M155.571 192.77L170.862 195.131L172.257 216.92L159.159 215.461L160.888 213.76L159.875 207.913L166.261 213.76C167.017 213.416 167.657 212.862 168.104 212.162C168.551 211.463 168.786 210.648 168.78 209.818C168.957 206.714 155.571 192.77 155.571 192.77Z" fill="#263238"/>
<path d="M156.351 204.631L151.592 198.766L146.87 197.418L156.351 204.631Z" fill="#263238"/>
<path d="M154.186 214.745L144.611 212.384L139.331 205.338L154.186 214.745Z" fill="#263238"/>
<path d="M158.499 173.175C158.333 175.785 159.175 178.36 160.851 180.37C162.507 181.99 164.595 183.1 166.865 183.567C167.363 183.758 167.894 183.848 168.427 183.832C168.96 183.816 169.484 183.695 169.97 183.474C171.011 182.842 171.317 181.494 171.531 180.295C172.461 175.024 173.251 169.243 170.602 164.604C169.616 162.894 167.395 156.033 165.47 155.606C159.837 154.369 158.592 169.336 158.499 173.175Z" fill="#263238"/>
<path d="M229.722 118.209L233.775 136.327C234.484 140.481 234.097 144.749 232.651 148.708L233.506 155.327L235.253 165.357C235.253 165.357 232.706 181.866 227.334 189.349C221.961 196.832 221.366 193.997 221.366 193.997L223.411 215.266C216.341 219.529 208.294 221.904 200.041 222.163C186.888 222.33 172.257 216.874 172.257 216.874C172.188 209.591 171.723 202.317 170.862 195.085C169.514 185.78 167.832 175.843 167.832 175.843L162.682 169.336L158.536 163.758L155.571 154.184L157.644 147.881L158.713 146.701C159.963 146.048 161.286 145.546 162.654 145.204C164.272 144.916 171.02 151.321 171.02 151.321L171.782 134.681L173.4 117.019L205.935 106.859L222.305 111.99L229.722 118.209Z" fill="white"/>
<path d="M231.089 123.433C231.089 123.433 234.426 137.991 234.193 139.896C233.961 141.802 232.65 150.633 232.65 150.633L235.16 164.446C235.309 165.267 235.281 166.11 235.077 166.919C233.989 171.241 230.085 185.761 225.047 193.421C219.079 202.493 188.133 198.124 181.691 193.356L175.361 172.859" stroke="#263238" stroke-linecap="round" stroke-linejoin="round"/>
<path d="M204.959 173.705C204.959 173.705 209.504 180.212 216.318 179.115" stroke="#263238" stroke-linecap="round" stroke-linejoin="round"/>
<path d="M167.832 175.843C167.832 175.843 172.731 200.42 172.257 216.93C172.257 216.93 185.717 222.061 198.666 222.228C211.614 222.395 223.429 215.312 223.429 215.312C222.416 208.861 221.914 195.512 221.914 195.512" stroke="#263238" stroke-linecap="round" stroke-linejoin="round"/>
<path d="M171.829 152.873C172.656 157.009 174.618 160.709 175.408 164.836C175.558 166.041 175.96 167.2 176.588 168.239C177.685 169.791 181.385 169.345 183.16 168.676C183.29 168.676 181.757 158.58 181.719 157.251C181.542 153.351 182.133 149.453 183.458 145.78C184.722 142.545 185.94 139.441 185.605 135.899C185.243 131.967 183.551 128.258 181.822 124.744C186.47 127.559 191.83 128.976 197.262 128.825C205.767 128.351 201.036 120.087 201.036 120.087C201.036 120.087 225.363 127.17 239.297 121.268C253.231 115.365 254.886 103.792 251.381 98.3537C247.877 92.9157 225.902 100.018 227.352 99.023C229.211 97.7681 232.418 94.3752 231.563 91.9025C231.411 91.5083 231.171 91.1545 230.859 90.8691C230.548 90.5836 230.175 90.3741 229.769 90.2572C226.311 89.1789 221.022 92.2371 217.991 93.6129C213.948 95.472 209.969 97.4892 205.665 98.614C197.866 100.668 189.751 100.603 181.766 100.873C177.992 101.003 174.246 101.282 170.5 101.635C167.255 101.933 163.639 102.239 161.092 104.517C161.011 104.584 160.936 104.659 160.869 104.74C157.43 108.728 162.924 150.744 162.924 150.744L171.829 152.873Z" fill="#263238"/>
<path d="M164.718 113.348C164.718 113.348 158.982 110.921 155.227 114.454C151.471 117.986 157.876 151.321 157.876 151.321L165.694 151.218L164.718 113.348Z" fill="#263238"/>
<path d="M68.7768 353.269H327.931L322.028 335.468C322.028 335.468 293.695 256.845 276.415 232.016L267.816 226.541L260.482 223.288L227.659 221.847L224.944 213.76C224.944 213.76 211.717 222.321 198.675 222.219C185.633 222.117 170.016 215.433 170.016 215.433L168.789 226.588C168.789 226.588 137.249 235.307 131.606 236.664C125.964 238.021 97.0078 252.216 97.0078 252.216C97.0078 252.216 96.543 254.475 95.7715 258.937C94.9999 263.399 83.3431 300.2 83.3431 300.2L66.332 353.269H68.7768Z" fill="#FEA000"/>
<path d="M214.868 146.701C215.11 148.337 215.398 149.97 215.732 151.599C216.123 153.459 216.662 155.494 218.168 156.684C219.404 157.614 221.133 157.911 222.212 159.055C222.756 159.724 223.1 160.534 223.205 161.39C223.311 162.247 223.172 163.116 222.806 163.898C222.061 165.454 221.022 166.852 219.748 168.016" stroke="#263238" stroke-linecap="round" stroke-linejoin="round"/>
<path d="M226.655 151.321C226.655 153.18 225.883 154.751 224.935 154.751C223.987 154.751 223.216 153.217 223.216 151.321C223.216 149.424 223.987 147.881 224.935 147.881C225.883 147.881 226.655 149.424 226.655 151.321Z" fill="#263238"/>
<path d="M205.768 152.166C205.768 154.072 204.996 155.606 204.048 155.606C203.1 155.606 202.328 154.072 202.328 152.166C202.328 150.261 203.1 148.736 204.048 148.736C204.996 148.736 205.768 150.27 205.768 152.166Z" fill="#263238"/>
<path d="M207.004 142.583C207.004 142.583 201.575 138.269 195.031 144.535" stroke="#263238" stroke-width="2" stroke-linecap="round" stroke-linejoin="round"/>
<path d="M220.789 141.848C220.789 141.848 226.85 138.465 231.015 142.731" stroke="#263238" stroke-width="2" stroke-linecap="round" stroke-linejoin="round"/>
<path d="M232.651 175.508C232.651 175.508 229.602 192.24 220.789 192.77C211.977 193.3 213.845 185.027 213.845 185.027L207.004 183.828C207.004 183.828 205.228 191.989 199.27 191.989C193.311 191.989 183.848 178.232 181.887 161.778L171.048 151.321C171.048 151.321 175.371 175.657 178.308 183.855L181.692 193.337C181.692 193.337 195.031 201.778 208.556 204.659C222.184 201.805 223.522 196.005 225.028 193.449C226.534 190.892 232.651 175.508 232.651 175.508Z" fill="#263238"/>
<path d="M165.108 112C165.181 110.991 165.48 110.011 165.984 109.134C166.487 108.257 167.183 107.505 168.018 106.934C169.692 105.801 171.597 105.055 173.595 104.749C180.502 103.429 187.604 104.693 194.603 105.465C201.603 106.236 209.012 106.46 215.305 103.308C217.779 102.05 219.98 100.316 221.783 98.2061C223.585 96.0957 224.953 93.6503 225.809 91.0101" stroke="white" stroke-linecap="round" stroke-linejoin="round"/>
<path d="M174.209 114.073C175.229 113.238 176.4 112.607 177.657 112.214C182.705 110.494 188.273 111.349 193.46 112.753C198.647 114.156 203.685 116.09 209.002 116.471C212.45 116.648 215.906 116.423 219.302 115.802C225.103 114.872 230.94 113.496 236.034 110.55C241.128 107.603 245.404 102.899 246.771 97.1917" stroke="white" stroke-linecap="round" stroke-linejoin="round"/>
<path d="M168.78 117.075C167.922 117.004 167.063 117.201 166.322 117.639C165.581 118.077 164.995 118.734 164.643 119.52C163.956 121.101 163.638 122.818 163.714 124.54C163.586 132.657 164.366 140.764 166.038 148.708" stroke="white" stroke-linecap="round" stroke-linejoin="round"/>
<path d="M175.817 174.16C175.817 174.16 172.424 177.079 170.063 176.949C168.055 176.819 160.767 166.844 158.676 163.935C158.314 163.417 158.035 162.846 157.848 162.243L155.887 155.634C155.524 154.435 155.57 153.15 156.017 151.981L157.086 149.192C157.354 148.478 157.762 147.825 158.288 147.273C158.813 146.72 159.445 146.279 160.144 145.976C161.194 145.521 162.356 145.392 163.48 145.606C164.604 145.82 165.637 146.366 166.447 147.175L171.764 152.482" fill="white"/>
<path d="M175.817 174.16C175.817 174.16 172.424 177.079 170.063 176.949C168.055 176.819 160.767 166.844 158.676 163.935C158.314 163.417 158.035 162.846 157.848 162.243L155.887 155.634C155.524 154.435 155.57 153.15 156.017 151.981L157.086 149.192C157.354 148.478 157.762 147.825 158.288 147.273C158.813 146.72 159.445 146.279 160.144 145.976C161.194 145.521 162.356 145.392 163.48 145.606C164.604 145.82 165.637 146.366 166.447 147.175L171.764 152.482" stroke="#263238" stroke-linecap="round" stroke-linejoin="round"/>
<path d="M227.343 223.743L224.935 213.76C224.935 213.76 210.118 222.962 200.041 222.209C189.965 221.456 174.199 217.952 170.007 215.433L168.78 226.588C168.78 226.588 181.794 237.073 198.331 236.646C214.868 236.218 227.343 223.743 227.343 223.743Z" stroke="#263238" stroke-linecap="round" stroke-linejoin="round"/>
<path d="M257.154 177.795C248.146 159.863 233.078 149.052 233.078 149.052" stroke="#263238" stroke-linecap="round" stroke-linejoin="round"/>
<path d="M168.78 226.541L134.618 235.697C132.326 236.309 130.082 237.092 127.907 238.04C119.634 241.647 98.4674 250.933 96.9801 252.216C96.7256 252.455 96.522 252.743 96.3815 253.062C96.2409 253.382 96.1663 253.726 96.162 254.075C96.0233 258.269 95.3453 262.427 94.1449 266.448L66.2578 353.251" stroke="#263238" stroke-linecap="round" stroke-linejoin="round"/>
<path d="M327.931 353.269C304.766 281.33 285.71 246.49 278.729 235.047C276.994 232.2 274.495 229.897 271.516 228.4L263.893 224.58C261.634 223.456 259.164 222.822 256.643 222.721L227.343 221.503" stroke="#263238" stroke-linecap="round" stroke-linejoin="round"/>
<path d="M163.389 254.716C161.565 257.951 159.93 261.287 158.49 264.709" stroke="#263238" stroke-linecap="round" stroke-linejoin="round"/>
<path d="M178.215 232.137C173.565 238.335 169.246 244.773 165.275 251.426" stroke="#263238" stroke-linecap="round" stroke-linejoin="round"/>
<path d="M182.361 233.838C182.361 233.838 177.536 247.401 175.854 258.937" stroke="#263238" stroke-linecap="round" stroke-linejoin="round"/>
<path d="M229.564 248.423C230.799 250.828 231.831 253.331 232.651 255.906" stroke="#263238" stroke-linecap="round" stroke-linejoin="round"/>
<path d="M217.573 230.873C221.228 235.07 224.497 239.587 227.343 244.37" stroke="#263238" stroke-linecap="round" stroke-linejoin="round"/>
<path d="M211.345 233.838C211.345 233.838 216.309 248.312 216.29 255.906" stroke="#263238" stroke-linecap="round" stroke-linejoin="round"/>
<path opacity="0.3" d="M313.802 353.279H66.332L83.371 300.2C83.371 300.2 95.0278 263.399 95.7901 258.946C96.5523 254.493 97.0264 252.216 97.0264 252.216C97.0264 252.216 126.001 237.975 131.653 236.608C137.305 235.242 168.836 226.551 168.836 226.551L170.063 215.396C170.063 215.396 185.689 222.079 198.73 222.182C207.45 222.256 216.271 218.463 221.133 215.907L221.951 223.409C218.753 226.355 210.861 233.085 201.947 236.562C202.7 236.395 214.329 233.68 222.397 227.406V227.778C222.397 227.778 260.101 230.827 265.669 235.214C277.642 244.872 305.705 331.462 313.802 353.279Z" fill="black"/>
</svg>
